<svg id="组_48" data-name="组 48" xmlns="http://www.w3.org/2000/svg" xmlns:xlink="http://www.w3.org/1999/xlink" width="423" height="379" viewBox="0 0 423 379">
  <metadata><?xpacket begin="﻿" id="W5M0MpCehiHzreSzNTczkc9d"?>
<x:xmpmeta xmlns:x="adobe:ns:meta/" x:xmptk="Adobe XMP Core 5.6-c138 79.159824, 2016/09/14-01:09:01        ">
   <rdf:RDF xmlns:rdf="http://www.w3.org/1999/02/22-rdf-syntax-ns#">
      <rdf:Description rdf:about=""/>
   </rdf:RDF>
</x:xmpmeta>
                                                                                                    
                                                                                                    
                                                                                                    
                                                                                                    
                                                                                                    
                                                                                                    
                                                                                                    
                                                                                                    
                                                                                                    
                                                                                                    
                                                                                                    
                                                                                                    
                                                                                                    
                                                                                                    
                                                                                                    
                                                                                                    
                                                                                                    
                                                                                                    
                                                                                                    
                                                                                                    
                           
<?xpacket end="w"?></metadata>
<defs>
    <style>
      .cls-1 {
        fill: none;
        stroke: #dedede;
        stroke-width: 2.001px;
      }

      .cls-1, .cls-5 {
        fill-rule: evenodd;
      }

      .cls-2 {
        fill: #ffd52d;
        filter: url(#filter);
      }

      .cls-3 {
        fill: #01bdff;
        filter: url(#filter-2);
      }

      .cls-4 {
        fill: #ff4949;
        filter: url(#filter-3);
      }

      .cls-5 {
        fill: #111116;
      }
    </style>
    <filter id="filter" x="260" y="217" width="163" height="162" filterUnits="userSpaceOnUse">
      <feOffset result="offset" dy="5" in="SourceAlpha"/>
      <feGaussianBlur result="blur" stdDeviation="3.162"/>
      <feFlood result="flood" flood-color="#ffd52d" flood-opacity="0.5"/>
      <feComposite result="composite" operator="in" in2="blur"/>
      <feBlend result="blend" in="SourceGraphic"/>
    </filter>
    <filter id="filter-2" x="0" y="120" width="186" height="185" filterUnits="userSpaceOnUse">
      <feOffset result="offset" dy="5" in="SourceAlpha"/>
      <feGaussianBlur result="blur" stdDeviation="3.162"/>
      <feFlood result="flood" flood-color="#47c7f5" flood-opacity="0.5"/>
      <feComposite result="composite" operator="in" in2="blur"/>
      <feBlend result="blend" in="SourceGraphic"/>
    </filter>
    <filter id="filter-3" x="221" y="0" width="155" height="154" filterUnits="userSpaceOnUse">
      <feOffset result="offset" dy="5" in="SourceAlpha"/>
      <feGaussianBlur result="blur" stdDeviation="3.162"/>
      <feFlood result="flood" flood-color="#ff4949" flood-opacity="0.35"/>
      <feComposite result="composite" operator="in" in2="blur"/>
      <feBlend result="blend" in="SourceGraphic"/>
    </filter>
  </defs>
  <path id="形状_21" data-name="形状 21" class="cls-1" d="M577.674,2046.5l-201.568,135,248.583,89Z" transform="translate(-283 -1975)"/>
  <circle id="椭圆_2" data-name="椭圆 2" class="cls-2" cx="340.688" cy="292.5" r="71.532"/>
  <circle id="椭圆_2_拷贝" data-name="椭圆 2 拷贝" class="cls-3" cx="92.094" cy="207" r="83.031"/>
  <circle id="椭圆_2_拷贝_2" data-name="椭圆 2 拷贝 2" class="cls-4" cx="297.672" cy="71.5" r="67.516"/>
  <path id="覆盖用户_多维度数据源" data-name="覆盖用户 多维度数据源" class="cls-5" d="M553.408,2030.03v0.81h-3.814v2.56h2.188a11.234,11.234,0,0,1-3.063,2.57,7.3,7.3,0,0,1,.625,1.31,14.586,14.586,0,0,0,3.5-3l-1-.88h3.063a10.12,10.12,0,0,1-2.5,2.5c0.208,0.17.52,0.46,0.937,0.88l0.438-.31v2.56h1.376a10.5,10.5,0,0,1-2.876,1.75c0.125,0.12.291,0.29,0.5,0.5a2.628,2.628,0,0,0,.437.31,9.721,9.721,0,0,0,1.438-.75,5.15,5.15,0,0,0,1.688.94,38.593,38.593,0,0,1-4.063.62q0.125,0.195.312,0.57c0.125,0.25.208,0.41,0.25,0.5a33.623,33.623,0,0,0,5.189-1,24.752,24.752,0,0,0,5.065.81c0.166-.42.333-0.79,0.5-1.13a20.831,20.831,0,0,1-3.626-.37,7.148,7.148,0,0,0,2.25-1.13v-1h-6a3.048,3.048,0,0,0,.688-0.62h5.377v-3.44h-7.5a2.567,2.567,0,0,0,.563-0.62h7.627v-0.94h-6.814a1.7,1.7,0,0,1,.312-0.44l-1.25-.19h7.315v-2.56h-3.814v-0.81h4.627v-1h-14.5v1h4.564Zm-1.688,13.37v-4.68q0.563-.63,1.25-1.38l-1.062-.94a13.562,13.562,0,0,1-3.377,3.13q0.063,0.18.251,0.69a7.2,7.2,0,0,1,.25.75c0.458-.34.875-0.65,1.25-0.94v3.37h1.438Zm3.564-5.75h5.5v0.63h-5.5v-0.63Zm5.5-1.25v0.63h-5.5v-0.63h5.5Zm-2.688,5.07a10.665,10.665,0,0,1-2.063-.94h4.314a11.4,11.4,0,0,1-2.251.94h0Zm-4.689-9.75v0.81h-2.251v-0.81h2.251Zm7.627,0.81h-2.313v-0.81h2.313v0.81Zm-3.813-.81v0.81h-2.251v-0.81h2.251Zm0-1.69v0.81h-2.251v-0.81h2.251Zm22.542,12.81v-1.25h-1.5v-4H566.2v4h-1.438v1.25h15Zm-8.378-11.31v1.19h-5.439v1.18h5.439v1.19h-6.377v1.31h14.5v-1.31h-6.377v-1.19h5.376v-1.18h-5.376v-1.19h6.127v-1.31H575.45a9.677,9.677,0,0,0,1.188-1.32l0.125-.12-1.751-.38a20.4,20.4,0,0,1-1.625,1.82H570.2l0.75-.19c-0.125-.17-0.167-0.21-0.125-0.13q-0.876-.99-1.375-1.5l-1.751.38q0.688,0.69,1.376,1.44H565.2v1.31h6.189Zm-1.563,7.37v2.69h-1.938v-2.69h1.938Zm6.752,2.69H574.7v-2.69h1.875v2.69Zm-3.376-2.69v2.69h-1.938v-2.69H573.2Zm10.789-.12H587.8v4.25h1.688v-4.25h3.939v2.06c0.041,0.59-.313.85-1.063,0.81h-0.813q-0.562-.06-0.875-0.06a8.214,8.214,0,0,1,.25,1.06,4.163,4.163,0,0,0,.125.57c0.792,0,1.459-.03,2-0.07,1.458,0.04,2.146-.62,2.063-2v-11.93H582.362v6.37a20.081,20.081,0,0,1-.313,4.13,8.807,8.807,0,0,1-1.25,2.81,8.968,8.968,0,0,0,.813.5c0.333,0.21.583,0.35,0.75,0.44a10.1,10.1,0,0,0,1.626-4.69h0Zm9.44-5.5h-3.939v-2.5h3.939v2.5Zm0,1.5v2.5h-3.939v-2.5h3.939Zm-9.315,0H587.8v2.5H584.05v-0.75c0.041-.42.063-0.73,0.063-0.94v-0.81Zm3.688-4v2.5h-3.688v-2.5H587.8Zm12.539,6.5h9.066v0.75h1.75v-7.44h-5q-0.5-1.125-.876-2.19l-1.875.32q0.124,0.315.437,0.93c0.166,0.42.291,0.73,0.375,0.94H598.59v4.75q0.188,4.7-1.626,6.81a17.847,17.847,0,0,0,1.376,1.25,10.179,10.179,0,0,0,2-6.12h0Zm0-5.06h9.066v3.43H600.34v-3.43Zm-60.659,24.26h4.939a17.277,17.277,0,0,1-3.876,2.5c-0.209-.21-0.542-0.5-1-0.88s-0.813-.66-1.063-0.87l-1.376.69q0.312,0.315.938,0.87c0.416,0.38.729,0.67,0.938,0.88a30.79,30.79,0,0,1-6.565,1.5,7.751,7.751,0,0,1,.563,1.43q9.191-1.3,13.629-6.06v-1.44h-5.314c0.375-.33.791-0.68,1.251-1.06l-1.876-.31a19.883,19.883,0,0,1-7.565,4,13.377,13.377,0,0,1,.875,1.44,26.179,26.179,0,0,0,5.5-2.69h0Zm-1.938-6.13h6a19.559,19.559,0,0,1-4.064,2.25l0.188-.12c-0.417-.33-0.96-0.75-1.626-1.25-0.375-.29-0.647-0.5-0.813-0.63l-1.25.75c0.583,0.46,1.271,1.07,2.063,1.82a40.582,40.582,0,0,1-5.752,1.56,5.12,5.12,0,0,1,.438,1.06c0.083,0.17.146,0.29,0.188,0.38q8.376-1.815,13-5.69v-1.5h-6.565c0.5-.38,1-0.79,1.5-1.25l-1.939-.25a19.357,19.357,0,0,1-6.064,3.62,10.213,10.213,0,0,1,.625.94,2.63,2.63,0,0,1,.25.38,25.449,25.449,0,0,0,3.814-2.07h0Zm16.978,3.63v8.62h1.563v-1H563.6v-1.25h-3v-2h2.688v-1.37H560.6v-1.94h2.688v-1.37H560.6v-1.94h2.876v-1.38h-3l0.562-.12a13.765,13.765,0,0,0-1-2.44l-1.563.25a19.292,19.292,0,0,1,.813,1.81c0.083,0.21.145,0.38,0.187,0.5h-2.813a16.855,16.855,0,0,0,.75-1.87c0.083-.25.146-0.44,0.188-0.56l-1.688-.32a19.757,19.757,0,0,1-2.814,6.07c0.041,0.12.1,0.29,0.188,0.5a4.244,4.244,0,0,1,.438,1.18c0.375-.5.708-0.95,1-1.37h0Zm-5.627.12q1-.12,1.938-0.18c-0.084.12-.209,0.33-0.375,0.62a11.039,11.039,0,0,1-.875,1.31,4.985,4.985,0,0,1-1,1.07l0.5,1.37a2.747,2.747,0,0,0,.437-0.06c1.251-.17,2.5-0.31,3.751-0.44a10.636,10.636,0,0,1,.063-1.37l-2.626.25q1.25-1.875,3.251-5.13l-1.438-.69c-0.25.55-.542,1.11-0.875,1.69l-1.563.06q1.688-2.55,2.751-4.5l-1.563-.5a30.961,30.961,0,0,1-2.251,4.19,2.738,2.738,0,0,1-.75.88l0.437,1.43h0.188Zm4.5,6.69q0-.75.063-1.44a48.292,48.292,0,0,1-5.127.69l0.188,1.5q2.063-.375,4.876-0.75h0Zm5.44-2.44v2h-2.751v-2h2.751Zm0-3.31v1.94h-2.751v-1.94h2.751Zm0-3.31v1.94h-2.751v-1.94h2.751Zm20.729,9.19a24.008,24.008,0,0,1-4.564-.69,12.988,12.988,0,0,0,2.876-2.38v-1.37H568.26v1.31h1a14.154,14.154,0,0,0,2.564,2.44,34.107,34.107,0,0,1-4.627.94c0.25,0.5.5,0.97,0.75,1.43a21.832,21.832,0,0,0,5.5-1.62,20.922,20.922,0,0,0,5.627,1.5q0.312-.75.688-1.56h0Zm-12.192-6.19v-4.31H579.7v-1.38h-5.564l-0.375-1.5-1.938.13,0.375,1.37h-6.19v5.56a23.977,23.977,0,0,1-.25,4.07,8.974,8.974,0,0,1-1.125,2.87c0.166,0.13.416,0.31,0.75,0.56,0.25,0.21.458,0.38,0.625,0.5q1.689-2.565,1.563-7.87h0Zm2.314-1.56v2.31h7.189v-2.31h2.439v-1.38h-2.439v-1.25h-1.563v1.25h-4.063v-1.25h-1.563v1.25H567.76v1.38h2.126Zm3.563,6.37a8.368,8.368,0,0,1-2.376-1.75h5a10.847,10.847,0,0,1-2.626,1.75h0Zm2.063-6.37v1.18h-4.063v-1.18h4.063Zm8.538-.88a8.563,8.563,0,0,1-3.188,2.06,1.1,1.1,0,0,1,.125.19c0.291,0.46.5,0.81,0.625,1.06a10.188,10.188,0,0,0,2.876-2.12v1.56h1.438v-1.12a17.677,17.677,0,0,1,2.125,1.5l0.625-.88a2.678,2.678,0,0,1,.313.44,2.854,2.854,0,0,0,.25.31c0.041-.08.1-0.21,0.188-0.37a7.429,7.429,0,0,1,.437-0.69,13.433,13.433,0,0,0,1.376,4.31,12.339,12.339,0,0,1-2.939,2.63l0.375-.5q-0.876-.375-1.625-0.69a7.063,7.063,0,0,0,1.438-2.31v-1.38h-3.5l0.5-.87-1.5-.13c-0.167.29-.354,0.63-0.562,1h-2.438v1.31h1.625q-0.438.75-.938,1.44a19.2,19.2,0,0,1,2,.88,4.148,4.148,0,0,1,.625.31,12.079,12.079,0,0,1-2.876.81c-0.25.08-.459,0.15-0.625,0.19,0.25,0.54.479,1,.688,1.37a15.8,15.8,0,0,0,4.314-1.75c0.458,0.21,1.145.54,2.063,1l0.25-.43a8.091,8.091,0,0,1,1,1.25,25.256,25.256,0,0,0,3.064-2.75,15.354,15.354,0,0,0,2.875,2.62c0.167-.33.4-0.73,0.688-1.19a2.677,2.677,0,0,0,.25-0.37,10.756,10.756,0,0,1-2.938-2.44,15.906,15.906,0,0,0,1.75-6.81h1.063v-1.5h-4.189c0.25-.83.5-1.65,0.751-2.44l-1.563-.19a22.248,22.248,0,0,1-2.5,6.32c-0.584-.34-1.188-0.69-1.813-1.07l-0.625.75v-1.31h3v-1.31h-3v-3.25h-1.438v3.25h-3.376v1.31h2.938Zm7-.56h2.313a13.827,13.827,0,0,1-1.187,5.37,15.956,15.956,0,0,1-1.251-5,0.652,0.652,0,0,1,.125-0.37h0Zm-6.877,5.87h2.751a3.919,3.919,0,0,1-1.25,1.75,5.919,5.919,0,0,0-1.063-.43,10.712,10.712,0,0,0-1.063-.44Zm4.939-8.62-1.063-.81c-0.792.87-1.375,1.48-1.75,1.81l1,0.87c0.875-.87,1.479-1.5,1.813-1.87h0Zm-5.064.94q-0.187-.2-0.75-0.69c-0.459-.46-0.792-0.79-1-1l-1,.75c0.416,0.42.958,1.02,1.626,1.81Zm19.666,5.75h3.189v1.56h-2.876v5.31h1.5v-0.81h4.314v0.81h1.5v-5.31h-2.876v-1.56h3.626v-1.38h-3.626v-1.56h-1.563v1.56h-3.126v-1.56h7.815v-4.31h-9.378v5.25q0.125,5.37-1.751,7.75c0.5,0.41.916,0.79,1.251,1.12a12.143,12.143,0,0,0,2-6.87h0Zm-4.939-3.57v3.13c-0.209.04-.5,0.1-0.875,0.19l-0.938.18,0.188,1.75a4.476,4.476,0,0,1,.875-0.25c0.333-.12.583-0.2,0.75-0.25v3.38c0.041,0.46-.209.66-0.75,0.62a6.89,6.89,0,0,1-.75-0.06h-0.25a10.864,10.864,0,0,1,.25,1.63c0.375,0,.853-0.03,1.438-0.07a1.466,1.466,0,0,0,1.563-1.75v-4.12l1.313-.38q-0.063-.75-0.063-1.56l-1.25.31v-2.75h1.375v-1.56h-1.375v-2.81h-1.5v2.81h-1.563v1.56h1.563Zm11.254-2.37v1.69h-6.252v-1.69h6.252Zm-0.188,8.81v2h-4.314v-2h4.314Zm13.164-.87v2.81c0.041,0.46-.187.66-0.687,0.62h-1.251q0.188,0.69.313,1.38,0.938,0,1.625-.06a1.389,1.389,0,0,0,1.5-1.63v-3.12h2.876v-6.25H623.82l0.438-1.5h4v-1.44H617.443v5.44q0.124,5.19-1.563,7.62c0.416,0.33.854,0.71,1.313,1.13a15.428,15.428,0,0,0,1.438-3.88,24.893,24.893,0,0,0,.375-4.94v-3.93h3.564l-0.376,1.5h-2.063v6.25h2.876Zm-7.19.93c0.167-.79.292-1.37,0.376-1.75-0.25-.08-0.626-0.2-1.126-0.37a1.4,1.4,0,0,1-.375-0.13c-0.25,1.34-.688,3.21-1.313,5.63l1.563,0.44c0.166-.88.458-2.15,0.875-3.82h0Zm10.129-5.87v1.25h-4.314v-1.25h4.314Zm0,2.37v1.25h-4.314v-1.25h4.314Zm-5.752,6.32c0.875-1,1.521-1.79,1.938-2.38l-1.188-.75a11.577,11.577,0,0,1-2.313,2.81c0.125,0.13.312,0.29,0.563,0.5a3.37,3.37,0,0,0,.5.44,4.969,4.969,0,0,0,.5-0.62h0Zm8.252-.38c-0.667-.83-1.438-1.73-2.313-2.69l-1.125.69c0.333,0.42.771,0.98,1.313,1.69,0.416,0.5.729,0.87,0.938,1.12Zm-11.378-10.94q-1.063-1.125-2.188-2.25l-1.313.88q1.125,1.245,2.188,2.37Zm-0.5,4.13q-1-1.125-2.188-2.25l-1.251.94q1.125,1.125,2.126,2.31Z" transform="translate(-283 -1975)"/>
  <path id="多种人工智能_训练模型反应机制" data-name="多种人工智能 训练模型反应机制" class="cls-5" d="M334.112,2172.28h4.939a17.277,17.277,0,0,1-3.876,2.5c-0.209-.21-0.542-0.5-1-0.88s-0.813-.66-1.063-0.87l-1.376.69q0.312,0.315.938,0.87c0.416,0.38.729,0.67,0.938,0.88a30.8,30.8,0,0,1-6.565,1.5,7.751,7.751,0,0,1,.563,1.43q9.191-1.3,13.629-6.06v-1.44h-5.314c0.375-.33.791-0.68,1.251-1.06l-1.876-.31a19.883,19.883,0,0,1-7.565,4,13.377,13.377,0,0,1,.875,1.44,26.179,26.179,0,0,0,5.5-2.69h0Zm-1.938-6.13h6a19.585,19.585,0,0,1-4.064,2.25l0.188-.12c-0.417-.33-0.96-0.75-1.626-1.25-0.375-.29-0.647-0.5-0.813-0.63l-1.25.75c0.583,0.46,1.271,1.07,2.063,1.82a40.582,40.582,0,0,1-5.752,1.56,5.12,5.12,0,0,1,.438,1.06c0.083,0.17.146,0.29,0.188,0.38q8.376-1.815,13-5.69v-1.5h-6.565c0.5-.38,1-0.79,1.5-1.25l-1.939-.25a19.357,19.357,0,0,1-6.064,3.62,10.213,10.213,0,0,1,.625.94,2.63,2.63,0,0,1,.25.38,25.449,25.449,0,0,0,3.814-2.07h0Zm22.042,12.19v-4.94h1.875v0.75h1.5v-7.75h-3.376v-2.93h-1.563v2.93h-3.314v7.75h1.438v-0.75h1.876v4.94h1.563Zm-9.191-8.81a15.351,15.351,0,0,1-2.25,4.44,10.63,10.63,0,0,1,.625,1.75,15.082,15.082,0,0,0,1.751-3.25v5.87h1.5v-6.12q0.249,0.315.688,0.81t0.687,0.81l1.063-1.06c-0.792-.88-1.417-1.52-1.875-1.94l-0.563.5v-1.81h2v-1.56h-2v-2.25a11.157,11.157,0,0,0,1.813-.13h0.188l-0.25-1.5c-1.21.13-2.96,0.23-5.252,0.31a8.947,8.947,0,0,1,.25,1.5,4.907,4.907,0,0,1,.875-0.06q0.624-.06.876-0.06v2.19h-2.064v1.56h1.938Zm7.628-1.63v4.07h-1.876v-4.07h1.876Zm3.438,4.07h-1.875v-4.07h1.875v4.07Zm18.1,4.56q-6.19-2.565-6.752-10.69c0-.25.02-0.62,0.062-1.12a5.472,5.472,0,0,1,.063-1.13h-1.876q0,2.25-.125,3.75-0.438,6.315-6.44,9.38a10.383,10.383,0,0,1,1.188,1.56q5.439-3.06,6.377-8.31a11.124,11.124,0,0,0,6.252,8.12,10.894,10.894,0,0,1,1.251-1.56h0Zm7.725-10.13v9.38h-6.44v1.56h14.755v-1.56H383.8v-9.38h5.564v-1.68H376.293v1.68h5.627Zm17.415,3.82c-0.167-.09-0.417-0.23-0.75-0.44-0.959-.58-1.668-1.02-2.126-1.31H399.4v-1.25h-2.751a2.614,2.614,0,0,0,.062-0.69,5.259,5.259,0,0,0,.063-0.69h2.188v-1.25h-4.5a4.607,4.607,0,0,0,.5-1.12l-1.5-.13a6.423,6.423,0,0,1-1.938,2.81,5.767,5.767,0,0,1,.688.69c0.125,0.13.228,0.23,0.312,0.31a7.73,7.73,0,0,0,1.188-1.31h1.5a7.127,7.127,0,0,1-.125,1.38h-3.439v1.25h3.126q-0.626,1.305-3.251,2.25a13.868,13.868,0,0,1,.938,1.31,5.159,5.159,0,0,1,1-.5v6.87h1.626v-0.68h7.94v0.68h1.688v-6.93H398.46Zm6.5,0.18v-5.93h-5.814v5.93h5.814Zm-2.813,4.82v1.37h-7.94v-1.37h7.94Zm0-2.44v1.31h-7.94v-1.31h7.94Zm1.313-6.94v3.25h-2.814v-3.25h2.814Zm-10.816,5.63a5.653,5.653,0,0,0,2.25-1.94,3.307,3.307,0,0,1,.626.44q1.313,0.93,2.063,1.5h-4.939Zm16.29,6.81v-2.88h3.563v0.94c0,0.33-.25.5-0.75,0.5a10.317,10.317,0,0,1-1.375-.06,1.982,1.982,0,0,0,.125.56c0.041,0.38.083,0.67,0.125,0.88,0.208,0,.541-0.03,1-0.07h0.75a1.4,1.4,0,0,0,1.563-1.62v-7.19h-6.439v8.94h1.438Zm10.5-.19a1.885,1.885,0,0,0,2.063-1.5v-0.06c0.125-.67.208-1.23,0.25-1.69a6.144,6.144,0,0,1-.75-0.25,5.437,5.437,0,0,0-.688-0.25,14.983,14.983,0,0,1-.187,1.69c-0.042.46-.375,0.66-1,0.62h-1.312a0.744,0.744,0,0,1-.938-0.81v-1.12c2.041-.84,3.626-1.54,4.751-2.13l-0.875-1.25a27.5,27.5,0,0,1-3.876,1.81v-2.06h-1.563v5.06a1.708,1.708,0,0,0,2,1.94h2.126Zm-0.062-7.69a1.787,1.787,0,0,0,2.063-1.5,9.6,9.6,0,0,0,.312-1.75c-0.417-.16-0.75-0.29-1-0.37a1.483,1.483,0,0,1-.438-0.13c-0.042.5-.1,1.03-0.187,1.57a0.863,0.863,0,0,1-1.063.75h-1.25a0.748,0.748,0,0,1-.938-0.88v-0.75q2.375-.93,4.626-2.06l-0.875-1.19a28.124,28.124,0,0,1-3.751,1.75v-2.31h-1.563v4.87a1.765,1.765,0,0,0,2,2h2.064ZM416,2168.03c-1.042-1.33-1.959-2.42-2.751-3.25l-1.125.69,1.063,1.37q-0.562,0-1.751.06a17.5,17.5,0,0,0-1.75.07c0.541-.54,1.291-1.38,2.25-2.5,0.251-.29.438-0.5,0.563-0.63l-1.688-.56a15.14,15.14,0,0,1-2.251,2.94,3.143,3.143,0,0,1-1.062.87l0.562,1.38a6.867,6.867,0,0,1,.688-0.13,5.369,5.369,0,0,1,.688-0.06c1.958-.08,3.542-0.15,4.751-0.19a5.752,5.752,0,0,1,.563.81Zm-2.626,2.56v1.25h-3.563v-1.25h3.563Zm0,2.38v1.25h-3.563v-1.25h3.563Zm-95.8,21.45a19.313,19.313,0,0,0,.438-4.88v-6.62h-1.563v6.56a17.3,17.3,0,0,1-.375,4.37,6.806,6.806,0,0,1-1.751,2.82,16.486,16.486,0,0,1,1.438,1.06,8.538,8.538,0,0,0,1.813-3.31h0Zm7.5,3v-14.5h-1.563v14.5h1.563Zm-3.5-1v-12.94h-1.625v12.94h1.625Zm-8.065-.82c0.208-.2.541-0.56,1-1.06s0.791-.85,1-1.06c-0.167-.54-0.313-1.08-0.438-1.63-0.042.05-.125,0.13-0.25,0.25-0.667.67-1.042,1.05-1.125,1.13v-5.56H310.57v1.56h1.563v4.62a2.265,2.265,0,0,1-.563,1.57l1.063,1.12a6.21,6.21,0,0,1,.875-0.94h0Zm1.5-10c-0.75-.95-1.48-1.85-2.188-2.68l-1.376.81c0.208,0.25.521,0.67,0.938,1.25q0.875,1.125,1.188,1.56Zm19.416,0.19a7.2,7.2,0,0,1-.25.75,3.635,3.635,0,0,1-.25.75H332.3v1.31h1.063a6.531,6.531,0,0,1-.563,1.32c-0.125.33-.209,0.56-0.25,0.68v1.32h4.189v3.12a0.639,0.639,0,0,1-.813.75h-1.5a7.432,7.432,0,0,1,.312,1.56h1.813a1.663,1.663,0,0,0,1.751-1.93v-3.5h3.189v-1.44H338.3v-3.19h-2.813l0.562-1.5h5.5v-1.44h-4.939a2.076,2.076,0,0,0,.125-0.31,12.82,12.82,0,0,1,.5-1.25l-1.75-.19a16.914,16.914,0,0,1-.563,1.75h-2.688v1.44h2.188Zm-6.5,7.5q0.437-.06.75-0.12c0.791-.13,1.834-0.25,3.126-0.38a13.524,13.524,0,0,1,.063-1.44l-2.751.32q2.187-3.315,3.188-5.13l-1.375-.56-0.813,1.5-1.563.06q1.437-2.43,2.438-4.5l-1.563-.5a42.482,42.482,0,0,1-1.938,4.06,2.263,2.263,0,0,1-.75,1.07l0.438,1.43a5.956,5.956,0,0,1,1.5-.12,4.083,4.083,0,0,1,.625-0.06c-0.5.83-.959,1.54-1.375,2.12a4.131,4.131,0,0,1-.938,1l0.438,1.31a2.8,2.8,0,0,0,.5-0.06h0Zm4,2.44q0-.75.063-1.56a2.8,2.8,0,0,0-.5.06q-3.187.555-4.751,0.75l0.25,1.5q2.187-.435,4.939-0.75h0Zm3.689-2.44-1.376-.69a27.256,27.256,0,0,1-2.5,3.32,8.756,8.756,0,0,1,1.251.93q1.313-1.62,2.626-3.56h0Zm6.439,2.56q-0.937-1.5-2.063-3.18l-1.25.68c0.25,0.42.6,1.03,1.063,1.82q0.624,0.93.937,1.5Zm-5.314-5.37h-2.563c0.25-.58.5-1.21,0.75-1.88h1.813v1.88Zm15.227,1.56a9.628,9.628,0,0,0-.062,1.06h-4.5v1.32h4.064q-0.625,1.245-4.439,1.87a7.693,7.693,0,0,1,.751,1.38q3.875-.945,4.876-2.44,1.187,1.62,4.814,2.25a4.378,4.378,0,0,1,.25-0.56c0.166-.38.291-0.65,0.375-0.82q-3.5-.375-4.376-1.68h4.189v-1.32h-4.5a1.615,1.615,0,0,0,.063-0.5,3.743,3.743,0,0,0,.062-0.56h3.564v-5.37H348.4v5.37h3.563Zm-7.189-5a16.536,16.536,0,0,1-1.939,4.69c0.041,0.21.126,0.56,0.251,1.06,0.083,0.5.145,0.88,0.187,1.13a15.855,15.855,0,0,0,1.5-3.5v7.18h1.5v-7.18c0.083,0.08.229,0.23,0.438,0.43a5.332,5.332,0,0,0,.75.75l0.75-1.31c-0.625-.58-1.272-1.14-1.938-1.69v-1.56h1.375v-1.44h-1.375v-2.93h-1.5v2.93H343.15v1.44h1.626Zm10.69-.87v-0.94h2.439v-1.25h-2.439v-1.31h-1.5v1.31h-2.438v-1.31h-1.5v1.31h-2.376v1.25h2.376v0.94h1.5v-0.94h2.438v0.94h1.5Zm0.063,3.68v1h-5.564v-1h5.564Zm0-2.06v1.06h-5.564v-1.06h5.564Zm5.724-3.12v2.18h-2v1.38h1.938a3.524,3.524,0,0,1-1.626,2.62c0.416,0.3.729,0.5,0.938,0.63s0.354,0.21.438,0.25a4.916,4.916,0,0,0,1.75-3.5h2.126v2.94h1v1.37h-5.439v1.38h5.439v1.75h-6.564v1.37h14.879v-1.37h-6.564v-1.75h5.439v-1.38h-5.439v-1.37h-1.251v-2.94h1.813v-1.38h-1.813v-2.18h1.313v-1.38h-7.877v1.38h1.5Zm10.378,6.68c1.251,0,1.855-.68,1.814-2.06v-6.44h-1.563v6.07a0.762,0.762,0,0,1-.938,1h-1.876q0.062,0.24.188,0.75a6.9,6.9,0,0,0,.125.75c1.041,0,1.791-.02,2.25-0.07h0Zm-1.437-2.62v-5.19h-1.438v5.19h1.438Zm-5.377-4.06v2.18h-2.063v-2.18h2.063Zm24.918,12.43a11.323,11.323,0,0,1,.687-1.31,14.69,14.69,0,0,1-4.876-1.69,16.086,16.086,0,0,0,3.5-5.18v-1.63H378.669l0.062-2.12q6.127-.255,10.941-0.57l-0.563-1.62q-7.44.555-12.066,0.56v5.25q0.124,5.31-1.875,7.56c0.291,0.25.728,0.67,1.313,1.25q2.375-3,2.188-8.68h1.813l-0.813.37a14.725,14.725,0,0,0,3.063,4.75,14.59,14.59,0,0,1-4.814,2.06,0.181,0.181,0,0,0,.126.13q0.563,0.93.812,1.44a32.394,32.394,0,0,0,5.252-2.44,21.218,21.218,0,0,0,5.439,2.25c0.041-.09.1-0.21,0.188-0.38h0Zm-5.627-4.06a11.861,11.861,0,0,1-2.876-4.12h5.877a10.167,10.167,0,0,1-3,4.12h0Zm10.413-3.69v-3.25h11.816v-1.5h-5.376q-0.063-.24-0.188-0.75c-0.209-.66-0.334-1.1-0.375-1.31l-1.938.19c0.041,0.21.166,0.62,0.375,1.25,0.083,0.29.146,0.5,0.188,0.62H392.9v4.82a19.712,19.712,0,0,1-.313,4.06,7.6,7.6,0,0,1-1.188,2.87c0.208,0.21.583,0.54,1.126,1a2.991,2.991,0,0,1,.25.19q1.875-2.745,1.75-8.19h0Zm11.941,7.44v-1.44h-3.188q1-2.745,2.5-7.43l-1.626-.5q-1.125,4.065-2.563,7.93h-7v1.44h11.878Zm-8.065-3q-0.187-.555-0.5-1.62-0.813-2.82-1.375-4.32l-1.438.38q1.125,3.75,1.688,6.06Zm3.5-.75c-0.459-1.87-.771-3.19-0.937-3.94-0.209-.87-0.375-1.54-0.5-2l-1.563.32a3.908,3.908,0,0,1,.125.56q0.874,3.75,1.187,5.44Zm13.415,1.06a19.781,19.781,0,0,0,.5-5.12v-3.94h2.626v10.31a1.492,1.492,0,0,0,1.625,1.75h0.75a1.551,1.551,0,0,0,1.688-1.56q0.124-.87.251-3c-0.376-.12-0.793-0.25-1.251-0.37-0.084,1.33-.146,2.25-0.187,2.75q-0.063.81-.626,0.75H420.5q-0.438.06-.438-0.63v-11.56h-5.877v5.44a16.758,16.758,0,0,1-.437,4.56,6.9,6.9,0,0,1-1.813,2.94,6.646,6.646,0,0,1,.687.62,8.248,8.248,0,0,1,.688.56,10.108,10.108,0,0,0,2-3.5h0Zm-5.565-7.06a13.977,13.977,0,0,1-2.25,4.75,12.1,12.1,0,0,1,.375,1.75,2.784,2.784,0,0,1,.062.44,15.06,15.06,0,0,0,1.813-3.56v7.12h1.563v-7.37q0.249,0.24.688,0.75a7.384,7.384,0,0,1,.688.75l1-1.13a17.784,17.784,0,0,0-2-1.87l-0.376.37v-2h1.813v-1.5h-1.813v-2.87h-1.563v2.87h-1.875v1.5h1.875Zm18.1,2.38v1.62h-3.189v5.5h1.5v-4.12h1.688v5.18h1.563v-5.18h1.75v2.18q0.061,0.69-.563.63h-0.875c0.125,0.42.229,0.83,0.313,1.25a6.926,6.926,0,0,0,.75-0.06h0.5a1.35,1.35,0,0,0,1.376-1.57v-3.81h-3.251v-1.62h3.626v-1.38h-3.626v-1.75h3.063v-1.44h-3.063v-2.12h-1.563v2.12h-1.563c0.125-.41.25-0.87,0.375-1.37l-1.438-.25a14.689,14.689,0,0,1-1.313,3.94,6.685,6.685,0,0,1,1.313.5q0.375-.75.625-1.38h2v1.75h-4.064v1.38h4.064Zm8.5,7.93c1.292,0,1.917-.71,1.876-2.12v-12.5h-1.5v12.19a0.776,0.776,0,0,1-1,.87h-1.813q0.188,0.75.313,1.56h2.125Zm-1.125-3.62v-9.44h-1.438v9.44h1.438Z" transform="translate(-283 -1975)"/>
  <path id="多层次高时效_大数据风控体系" data-name="多层次高时效 大数据风控体系" class="cls-5" d="M583.2,2258.28h4.939a17.3,17.3,0,0,1-3.876,2.5c-0.21-.21-0.543-0.5-1-0.88s-0.813-.66-1.063-0.87l-1.375.69q0.312,0.315.938,0.87c0.416,0.38.729,0.67,0.938,0.88a30.8,30.8,0,0,1-6.565,1.5,7.751,7.751,0,0,1,.563,1.43q9.191-1.3,13.629-6.06v-1.44h-5.314c0.375-.33.791-0.68,1.25-1.06l-1.875-.31a19.883,19.883,0,0,1-7.565,4,13.377,13.377,0,0,1,.875,1.44,26.2,26.2,0,0,0,5.5-2.69h0Zm-1.938-6.13h6a19.576,19.576,0,0,1-4.063,2.25l0.187-.12c-0.417-.33-0.959-0.75-1.625-1.25-0.375-.29-0.647-0.5-0.813-0.63l-1.25.75c0.583,0.46,1.271,1.07,2.063,1.82a40.62,40.62,0,0,1-5.752,1.56,5.12,5.12,0,0,1,.438,1.06c0.083,0.17.145,0.29,0.187,0.38q8.378-1.815,13-5.69v-1.5h-6.564c0.5-.38,1-0.79,1.5-1.25l-1.938-.25a19.369,19.369,0,0,1-6.064,3.62,10.213,10.213,0,0,1,.625.94,2.63,2.63,0,0,1,.25.38,25.551,25.551,0,0,0,3.814-2.07h0Zm13.539,8h3.751a15.75,15.75,0,0,1-1.688,1.69,3.742,3.742,0,0,1-1.313.75l0.688,1.44a8.208,8.208,0,0,1,1.563-.25h0.125c0.208,0,.563-0.02,1.063-0.06,2.416-.09,4.314-0.13,5.689-0.13l0.875,0.94,1.313-1.06q-1.626-1.44-3.188-2.82,1.562,1.38-.438-0.43l-1.188.87c0.458,0.46.9,0.88,1.313,1.25q-0.813,0-2.563.06c-1.126.05-1.98,0.09-2.564,0.13,0.125-.13.354-0.35,0.688-0.69,0.75-.71,1.313-1.27,1.688-1.69h6.565v-1.43H595.047c0.083-.92.125-2.02,0.125-3.32v-0.75h11.316v-4.5H593.546v4.88a25.165,25.165,0,0,1-.312,4.75,9.992,9.992,0,0,1-1.251,3.25,5.028,5.028,0,0,1,.376.44q0.5,0.615.812,0.93a10.8,10.8,0,0,0,1.626-4.25h0Zm10.066-8.62v1.75h-9.691v-1.75h9.691Zm1,5.75v-1.31h-9.5v1.31h9.5Zm17.54,5.44a8.66,8.66,0,0,1-5.126-7.13c0-.46.02-0.91,0.062-1.37h-1.75a8.933,8.933,0,0,1-.125,2.18q-0.314,4.125-5.127,6.57c0.125,0.16.313,0.39,0.563,0.68,0.291,0.38.5,0.65,0.625,0.82q4.251-2.565,5-5.94a10.221,10.221,0,0,0,4.689,5.69,12.462,12.462,0,0,1,1.188-1.5h0Zm-0.562-9.38v-1.56h-6.69c0.25-.63.5-1.31,0.75-2.06l-1.688-.25a21.947,21.947,0,0,1-2.813,6.18,11.163,11.163,0,0,1,1.563.82,27.021,27.021,0,0,0,1.563-3.13h5.564l-1.125,2.75c0.208,0.04.478,0.11,0.812,0.19,0.376,0.08.646,0.15,0.813,0.19Zm-11,5.25q0.437-.99.625-1.44-0.876-.375-1.625-0.75-1.063,2.76-2.688,6.07l1.563,0.75q0.687-1.32,2.125-4.63h0Zm0.5-4.44c-0.25-.45-0.646-1.12-1.188-2-0.5-.87-0.9-1.52-1.187-1.93l-1.438.68c0.5,0.88,1.229,2.23,2.188,4.07Zm14.415,10.13v-5.81H637.13v3.5q0.062,0.93-1.125.87h-1.751a1,1,0,0,0,.063.31c0.125,0.46.208,0.82,0.25,1.07h2.313c1.291-.05,1.917-0.65,1.876-1.82v-5.25h-13.63v7.13h1.626Zm10.378-8.06v-3.25H626.689v3.25H637.13Zm-1.75,6.43v-3.25h-6.94v3.25h6.94Zm4.063-10.56v-1.31H633q-0.187-.75-0.375-1.44l-1.876.19,0.375,1.25h-6.752v1.31h15.067Zm-3.938,2v1.06h-7.19v-1.06h7.19Zm-1.688,6.38v1.18H630v-1.18h3.814Zm8.85,3.12v-1.19h2.438v1h1.563v-12.81H641.1v13h1.563Zm9.628-9.5v7.25a1.1,1.1,0,0,1-1.313,1.25h-2.251q0.249,0.75.438,1.56h2.5a1.984,1.984,0,0,0,2.25-2.31v-7.75h1.751v-1.56H653.92v-3.06h-1.625v3.06h-5v1.56h5Zm-7.19,3.13v3.68h-2.438v-3.68h2.438Zm0-5.13v3.69h-2.438v-3.69h2.438Zm5.877,6.75c-0.292-.5-0.73-1.21-1.313-2.12-0.375-.59-0.647-1.02-0.813-1.32l-1.313.75a2.546,2.546,0,0,0,.25.38c0.751,1.33,1.334,2.4,1.751,3.19Zm13.539-2.56,0.313,0.62a2.949,2.949,0,0,0,.437-0.62,0.612,0.612,0,0,1,.125-0.25,14.28,14.28,0,0,0,1.5,4.12,12.351,12.351,0,0,1-3.564,3l1.126,1.32a20.246,20.246,0,0,0,3.376-2.88,16.892,16.892,0,0,0,3.126,2.69c0.125-.21.312-0.5,0.562-0.88,0.166-.29.292-0.5,0.376-0.62a10.12,10.12,0,0,1-3.126-2.56,17.026,17.026,0,0,0,1.875-6.57h1.063v-1.56h-4.5q0.375-1.125.687-2.37l-1.563-.25a18.216,18.216,0,0,1-2.313,5.93l0.063,0.19c-0.209-.21-0.522-0.54-0.938-1-0.417-.41-0.73-0.75-0.938-1l-1.063.88c1.167,1.25,1.979,2.14,2.438,2.68Zm-0.312,5.94-2.189-2.13a22.785,22.785,0,0,0,1.438-2.69l-1.375-.68a14.531,14.531,0,0,1-1.188,2.25l-1.876-1.82-1.062,1,2.063,2.13a11.451,11.451,0,0,1-3.439,2.62,13.863,13.863,0,0,0,.875,1.5,20.258,20.258,0,0,0,3.627-3l1.938,1.94Zm0.312-9.07v-1.5h-2.5q-0.187-.555-0.562-1.62c-0.125-.29-0.209-0.5-0.25-0.63l-1.688.32q0.124,0.315.375,0.93c0.166,0.46.291,0.8,0.375,1h-3.251v1.5h7.5Zm4.627,0.5a14.528,14.528,0,0,1-1.313,5.07,15.357,15.357,0,0,1-1.376-4.75l0.188-.32h2.5Zm-8.816.82-1.187-.82a24.877,24.877,0,0,1-2.5,3l1,1a25.8,25.8,0,0,0,2.688-3.18h0Zm-86.094,19.88q-0.375,5.13-6.377,7.63c0.083,0.12.25,0.33,0.5,0.62,0.333,0.46.563,0.77,0.688,0.94q5.313-2.565,6.314-6.81,1.126,4.38,6.315,6.62a8.3,8.3,0,0,1,1.188-1.56q-5.753-2.055-6.565-7.44h6.252v-1.68h-6.314l0.125-3.94h-1.876c0,1.71-.021,3.02-0.062,3.94h-6.315v1.68h6.127Zm12.914-1.06a8.563,8.563,0,0,1-3.188,2.06,1.1,1.1,0,0,1,.125.19c0.291,0.46.5,0.81,0.625,1.06a10.188,10.188,0,0,0,2.876-2.12v1.56h1.438v-1.12a17.677,17.677,0,0,1,2.125,1.5l0.625-.88a2.619,2.619,0,0,1,.313.44,2.854,2.854,0,0,0,.25.31c0.041-.08.1-0.21,0.188-0.37a7.429,7.429,0,0,1,.437-0.69,13.433,13.433,0,0,0,1.376,4.31,12.339,12.339,0,0,1-2.939,2.63l0.375-.5q-0.876-.375-1.625-0.69a7.063,7.063,0,0,0,1.438-2.31v-1.38h-3.5l0.5-.87-1.5-.13c-0.168.29-.355,0.63-0.563,1h-2.438v1.31h1.625q-0.438.75-.938,1.44a19.2,19.2,0,0,1,2,.88,4.148,4.148,0,0,1,.625.31,12.079,12.079,0,0,1-2.876.81c-0.25.08-.459,0.15-0.625,0.19,0.25,0.54.479,1,.688,1.37a15.8,15.8,0,0,0,4.314-1.75c0.458,0.21,1.145.54,2.063,1l0.25-.43a8.091,8.091,0,0,1,1,1.25,25.256,25.256,0,0,0,3.064-2.75,15.354,15.354,0,0,0,2.875,2.62c0.167-.33.4-0.73,0.688-1.19a2.677,2.677,0,0,0,.25-0.37,10.756,10.756,0,0,1-2.938-2.44,15.906,15.906,0,0,0,1.75-6.81h1.063v-1.5h-4.189c0.25-.83.5-1.65,0.751-2.44l-1.563-.19a22.248,22.248,0,0,1-2.5,6.32c-0.584-.34-1.188-0.69-1.813-1.07l-0.625.75v-1.31h3v-1.31h-3v-3.25H587.59v3.25h-3.376v1.31h2.938Zm7-.56h2.313a13.827,13.827,0,0,1-1.187,5.37,15.956,15.956,0,0,1-1.251-5,0.652,0.652,0,0,1,.125-0.37h0Zm-6.877,5.87h2.751a3.919,3.919,0,0,1-1.25,1.75,5.919,5.919,0,0,0-1.063-.43,10.712,10.712,0,0,0-1.063-.44Zm4.939-8.62-1.063-.81c-0.792.87-1.375,1.48-1.75,1.81l1,0.87c0.875-.87,1.479-1.5,1.813-1.87h0Zm-5.064.94q-0.187-.2-0.75-0.69c-0.459-.46-0.792-0.79-1-1l-1,.75c0.416,0.42.958,1.02,1.626,1.81Zm19.666,5.75h3.189v1.56h-2.876v5.31h1.5v-0.81h4.314v0.81h1.5v-5.31H611.57v-1.56H615.2v-1.38H611.57v-1.56h-1.563v1.56h-3.126v-1.56H614.7v-4.31h-9.378v5.25q0.124,5.37-1.751,7.75c0.5,0.41.916,0.79,1.251,1.12a12.143,12.143,0,0,0,2-6.87h0Zm-4.939-3.57v3.13c-0.209.04-.5,0.1-0.875,0.19l-0.938.18,0.188,1.75a4.476,4.476,0,0,1,.875-0.25c0.333-.12.583-0.2,0.75-0.25v3.38c0.041,0.46-.209.66-0.75,0.62a6.89,6.89,0,0,1-.75-0.06h-0.25a10.864,10.864,0,0,1,.25,1.63c0.375,0,.853-0.03,1.438-0.07a1.466,1.466,0,0,0,1.563-1.75v-4.12l1.313-.38q-0.063-.75-0.063-1.56l-1.25.31v-2.75h1.375v-1.56H603.38v-2.81h-1.5v2.81h-1.563v1.56h1.563Zm11.254-2.37v1.69h-6.252v-1.69h6.252Zm-0.188,8.81v2h-4.314v-2h4.314Zm5.974,0.56a22.973,22.973,0,0,0,.376-4.75v-4.31h8.127v5.19a24.876,24.876,0,0,0,.375,5.56,1.86,1.86,0,0,0,1.751,1.56q1.249,0.06,1.563-1.56c0.083-.37.187-1.08,0.312-2.12a4.07,4.07,0,0,0,.063-0.5c-0.167-.04-0.438-0.13-0.813-0.25-0.209-.09-0.354-0.15-0.437-0.19v0.44a15.833,15.833,0,0,1-.251,2.06,0.5,0.5,0,0,1-.25.44,0.439,0.439,0,0,1-.375-0.38,26.216,26.216,0,0,1-.312-5.06v-6.75H617.607v5.87a22.643,22.643,0,0,1-.25,4,9.041,9.041,0,0,1-1.126,2.82q0.624,0.75,1.188,1.5a12.1,12.1,0,0,0,1.5-3.57h0Zm8.5,0.82c-0.375-.5-0.938-1.27-1.688-2.32q-0.75-1.125-1.188-1.68a35.1,35.1,0,0,0,2.5-4.38l-1.438-.69a33.116,33.116,0,0,1-2.126,3.69c-0.292-.41-0.771-1.06-1.438-1.94q-0.813-1.05-1.187-1.56l-1.313.88c0.208,0.29.5,0.68,0.875,1.18,0.916,1.3,1.6,2.25,2.063,2.88a26.1,26.1,0,0,1-3.438,3.87q0.188,0.2.562,0.63c0.25,0.25.438,0.44,0.563,0.56a22.335,22.335,0,0,0,3.313-3.69c0.876,1.17,1.709,2.34,2.5,3.5Zm6.912-8v3.18c-0.667.17-1.313,0.32-1.938,0.44l0.125,1.75,1.813-.44v3.38c0.041,0.46-.209.66-0.75,0.62H632.4a12.645,12.645,0,0,1,.313,1.63q0.75,0,1.563-.06a1.5,1.5,0,0,0,1.625-1.75v-4.25l1.5-.44v-0.63c-0.042-.41-0.063-0.75-0.063-1l-1.438.38v-2.81h1.438v-1.5H635.9v-2.75h-1.563v2.75h-1.688v1.5h1.688Zm7.315,5.62v3.13h-4.5v1.37h10.378v-1.37h-4.251v-3.13h3.563v-1.5h-8.69v1.5h3.5Zm-2.376-4.87v-1.63h6.377v1.56h1.563v-3.06h-3.626c-0.25-.62-0.521-1.27-0.813-1.94l-1.688.32c0.041,0.08.1,0.23,0.188,0.43,0.25,0.55.416,0.94,0.5,1.19h-4v3.13h1.5Zm8.128,1.87a40.757,40.757,0,0,0-3.439-2.44l-0.937,1c0.25,0.21.625,0.53,1.125,0.94,1,0.79,1.708,1.36,2.126,1.69Zm-5.377-1.37-1.063-1.13a29.206,29.206,0,0,1-3.313,2.44,10.674,10.674,0,0,1,1,1.25c1.417-1.04,2.542-1.9,3.376-2.56h0Zm14.352-1.07a14.65,14.65,0,0,1-4.376,6.32,2.587,2.587,0,0,0,.25.37q0.5,0.945.688,1.38a18.582,18.582,0,0,0,4.126-6.57v4.82h-2.313v1.43h2.313v2.69h1.625v-2.69H661v-1.43h-2.314v-4.88a16.487,16.487,0,0,0,4.252,6.38,8.43,8.43,0,0,1,.437-0.88,3.841,3.841,0,0,0,.376-0.81,14.989,14.989,0,0,1-4.377-6.13h3.751v-1.5h-4.439v-2.93h-1.625v2.93h-3.939v1.5h3.251Zm-4.439,10.44v-10.87a31.892,31.892,0,0,0,1.376-3.57l-1.688-.43a24.661,24.661,0,0,1-3.126,6.93,4.412,4.412,0,0,1,.125.63,13.152,13.152,0,0,1,.312,1.56c0.5-.71.979-1.39,1.438-2.06v7.81h1.563Zm15.915-8.69h0.188q0.563,0,1.688-.06,1.125,0,1.688-.06c-1.334.71-2.626,1.35-3.876,1.94a8.155,8.155,0,0,1-1.813.56l0.562,1.56a8.354,8.354,0,0,1,1.438-.12l4-.19v2.44a0.8,0.8,0,0,1-1,.93q-0.876,0-1.75-.06a7.889,7.889,0,0,1,.375,1.63c0.958,0,1.625-.03,2-0.07,1.459-.04,2.147-0.73,2.064-2.06v-2.87l3.876-.13,1.063,1.13,1.187-1q-1.312-1.32-3.688-3.57l-1.188.75,1.375,1.38q-1.251.06-3.813,0.12c-1.376.09-2.356,0.13-2.939,0.13q4-1.875,8.691-4.5l-1.313-1.13c-0.96.59-1.939,1.19-2.939,1.82q-1.814,0-4.439.12,2-1.065,4.314-2.5,0.5-.06,1.438-0.12c1.876-.13,3.251-0.21,4.126-0.25l-0.375-1.44q-6.315.435-13.254,0.62,0.188,0.75.313,1.5,2.25-.12,4.814-0.18a34.853,34.853,0,0,1-3.064,1.87,5.055,5.055,0,0,1-1.375.5l0.5,1.44a4.8,4.8,0,0,0,1.125-.13h0Zm11.879,6.94q-2.25-1.62-4-2.75l-1.126,1.19c1.584,1,2.939,1.91,4.064,2.75Zm-13,.63q2-1.38,3.126-2.25l-1.125-1.13a24.62,24.62,0,0,1-4,2.75,16.642,16.642,0,0,1,1.063,1.31c0.208-.16.521-0.39,0.938-0.68h0Z" transform="translate(-283 -1975)"/>
</svg>
