<svg xmlns="http://www.w3.org/2000/svg" width="60" height="68" viewBox="0 0 60 68">
  <metadata><?xpacket begin="﻿" id="W5M0MpCehiHzreSzNTczkc9d"?>
<x:xmpmeta xmlns:x="adobe:ns:meta/" x:xmptk="Adobe XMP Core 5.6-c138 79.159824, 2016/09/14-01:09:01        ">
   <rdf:RDF xmlns:rdf="http://www.w3.org/1999/02/22-rdf-syntax-ns#">
      <rdf:Description rdf:about=""/>
   </rdf:RDF>
</x:xmpmeta>
                                                                                                    
                                                                                                    
                                                                                                    
                                                                                                    
                                                                                                    
                                                                                                    
                                                                                                    
                                                                                                    
                                                                                                    
                                                                                                    
                                                                                                    
                                                                                                    
                                                                                                    
                                                                                                    
                                                                                                    
                                                                                                    
                                                                                                    
                                                                                                    
                                                                                                    
                                                                                                    
                           
<?xpacket end="w"?></metadata>
<defs>
    <style>
      .cls-1 {
        fill: #ae2ada;
        fill-rule: evenodd;
      }
    </style>
  </defs>
  <path id="形状_81" data-name="形状 81" class="cls-1" d="M651.231,1514.39l-6.843-11.89a5.714,5.714,0,0,0-7.186-2.4l-1.077-1.59a21.6,21.6,0,0,0,4.368-26.81,21.088,21.088,0,0,0-38.763,5.16,21.493,21.493,0,0,0,2.114,16.25,21.128,21.128,0,0,0,18.36,10.7,20.848,20.848,0,0,0,10.544-2.86,21.161,21.161,0,0,0,1.841-1.21l0.966,1.43a5.746,5.746,0,0,0-1.064,7.08l6.843,11.89a5.715,5.715,0,0,0,4.959,2.87,5.726,5.726,0,0,0,5.514-4.27A5.729,5.729,0,0,0,651.231,1514.39Zm-19.461-15.16a19.1,19.1,0,0,1-26.231-7.11,19.493,19.493,0,0,1-1.918-14.74,19.243,19.243,0,0,1,8.946-11.8,18.938,18.938,0,0,1,9.569-2.6,19.185,19.185,0,0,1,16.662,9.71,19.494,19.494,0,0,1,1.918,14.74A19.243,19.243,0,0,1,631.77,1499.23Zm18.147,19a3.759,3.759,0,0,1-6.892.91l-6.843-11.88a3.761,3.761,0,0,1,6.515-3.76l6.843,11.89A3.738,3.738,0,0,1,649.917,1518.23Zm-15.8,1.8H595.876a1.935,1.935,0,0,1-1.93-1.93v-59.21a1.926,1.926,0,0,1,1.93-1.92H634.12a1.926,1.926,0,0,1,1.93,1.92L636,1464h2v-5.11a3.9,3.9,0,0,0-3.88-3.9H595.876a3.894,3.894,0,0,0-3.879,3.9v59.21a3.894,3.894,0,0,0,3.879,3.9H634.12a3.9,3.9,0,0,0,3.88-3.9h-1.95A1.935,1.935,0,0,1,634.12,1520.03ZM602.006,1508v2.01H629.99V1508H602.006Zm16.284-23.46a4.195,4.195,0,1,0,8.389,0C622.842,1485.98,620.01,1485.79,618.29,1484.54Zm5.238-1.94s1.177,1.41,2.435.57,0.487-2.86.487-2.86C625.947,1481.92,623.528,1482.6,623.528,1482.6Zm-4.524.58c1.255,0.83,2.428-.58,2.428-0.58s-2.412-.68-2.914-2.29C618.518,1480.31,617.748,1482.34,619,1483.18Zm14-8.17c-1.29,1.63-3.762,1.98-5.226,2.03a8.672,8.672,0,0,0-10.706.12c-1.468-.08-3.821-0.47-5.067-2.14,0,0,.383,4.64,2.218,6.16a9.021,9.021,0,0,0-.5,2.95,8.785,8.785,0,1,0,17.569,0,8.971,8.971,0,0,0-.611-3.24C632.6,1479.53,633,1475.01,633,1475.01Zm-3.54,4.13-1.367.96,0.608,1.57a6.815,6.815,0,0,1,.465,2.46,6.667,6.667,0,1,1-12.95-2.23l0.492-1.42-1.144-.95a1.673,1.673,0,0,1-.339-0.43,12.443,12.443,0,0,0,1.74.19l0.792,0.04,0.622-.49a6.572,6.572,0,0,1,8.121-.09l0.6,0.45,0.75-.02a14.151,14.151,0,0,0,1.753-.17A1.675,1.675,0,0,1,629.461,1479.14ZM622.5,1466a16.5,16.5,0,1,0,16.508,16.5A16.521,16.521,0,0,0,622.5,1466Zm0,30.9a14.4,14.4,0,1,1,14.409-14.4A14.421,14.421,0,0,1,622.5,1496.9Z" transform="translate(-592 -1455)"/>
</svg>
