<svg xmlns="http://www.w3.org/2000/svg" xmlns:xlink="http://www.w3.org/1999/xlink" width="120" height="138" viewBox="0 0 120 138">
  <metadata><?xpacket begin="﻿" id="W5M0MpCehiHzreSzNTczkc9d"?>
<x:xmpmeta xmlns:x="adobe:ns:meta/" x:xmptk="Adobe XMP Core 5.6-c138 79.159824, 2016/09/14-01:09:01        ">
   <rdf:RDF xmlns:rdf="http://www.w3.org/1999/02/22-rdf-syntax-ns#">
      <rdf:Description rdf:about=""/>
   </rdf:RDF>
</x:xmpmeta>
                                                                                                    
                                                                                                    
                                                                                                    
                                                                                                    
                                                                                                    
                                                                                                    
                                                                                                    
                                                                                                    
                                                                                                    
                                                                                                    
                                                                                                    
                                                                                                    
                                                                                                    
                                                                                                    
                                                                                                    
                                                                                                    
                                                                                                    
                                                                                                    
                                                                                                    
                                                                                                    
                           
<?xpacket end="w"?></metadata>
<defs>
    <style>
      .cls-1 {
        filter: url(#filter);
      }

      .cls-2 {
        fill: none;
        stroke: #8a57be;
        stroke-width: 4px;
        fill-rule: evenodd;
      }
    </style>
    <filter id="filter" filterUnits="userSpaceOnUse">
      <feFlood result="flood" flood-color="#ae2ada"/>
      <feComposite result="composite" operator="in" in2="SourceGraphic"/>
      <feBlend result="blend" in2="SourceGraphic"/>
    </filter>
  </defs>
  <g id="反欺诈" class="cls-1">
    <path id="矩形_16" data-name="矩形 16" class="cls-2" d="M1529,3131a6,6,0,0,1-6,6h-79a6,6,0,0,1-6-6V3011a6,6,0,0,1,6-6h79a6,6,0,0,1,6,6v12" transform="translate(-1436 -3003)"/>
    <path id="形状_29_拷贝_2" data-name="形状 29 拷贝 2" class="cls-2" d="M1455,3112h58" transform="translate(-1436 -3003)"/>
    <path id="椭圆_9" data-name="椭圆 9" class="cls-2" d="M1479.25,3022.42a40.508,40.508,0,1,1-14.82,55.33A40.512,40.512,0,0,1,1479.25,3022.42Zm20.25,6.58a28.5,28.5,0,1,1-28.5,28.5A28.5,28.5,0,0,1,1499.5,3029Z" transform="translate(-1436 -3003)"/>
    <path id="形状_29" data-name="形状 29" class="cls-2" d="M1499.5,3042a17.5,17.5,0,1,1-17.5,17.5A17.5,17.5,0,0,1,1499.5,3042Zm8.41,3.07s9.19,0.81,13.1-4.06c0,0-.89,9.98-5.3,12.24m-24.7-7.93s-9.14.86-13.02-4.31c0,0,.88,10.59,5.26,12.99" transform="translate(-1436 -3003)"/>
    <path id="形状_30" data-name="形状 30" class="cls-2" d="M1501.74,3057.66s4.81-1.09,5.81-3.66c0,0,1.53,3.24-.97,4.57S1501.74,3057.66,1501.74,3057.66Zm-4.75,0s-4.6-1.08-5.56-3.66c0,0-1.46,3.25.93,4.58S1496.99,3057.66,1496.99,3057.66Z" transform="translate(-1436 -3003)"/>
    <path id="椭圆_10" data-name="椭圆 10" class="cls-2" d="M1499.5,3069c-4.69,0-8.51-3.13-8.5-7,3.48,2.07,9.23,2.39,17,0C1507.99,3065.87,1504.19,3069,1499.5,3069Z" transform="translate(-1436 -3003)"/>
    <path id="形状_28" data-name="形状 28" class="cls-2" d="M1521,3088l7.37,11.11" transform="translate(-1436 -3003)"/>
    <path id="矩形_17" data-name="矩形 17" class="cls-2" d="M1525.41,3097.01a9.774,9.774,0,0,1,13.27,3.52l14.02,24.05a9.561,9.561,0,0,1-3.55,13.13,9.768,9.768,0,0,1-13.27-3.51l-14.02-24.06A9.565,9.565,0,0,1,1525.41,3097.01Z" transform="translate(-1436 -3003)"/>
  </g>
</svg>
