<svg xmlns="http://www.w3.org/2000/svg" xmlns:xlink="http://www.w3.org/1999/xlink" width="112.06" height="128" viewBox="0 0 112.06 128">
  <metadata><?xpacket begin="﻿" id="W5M0MpCehiHzreSzNTczkc9d"?>
<x:xmpmeta xmlns:x="adobe:ns:meta/" x:xmptk="Adobe XMP Core 5.6-c138 79.159824, 2016/09/14-01:09:01        ">
   <rdf:RDF xmlns:rdf="http://www.w3.org/1999/02/22-rdf-syntax-ns#">
      <rdf:Description rdf:about=""/>
   </rdf:RDF>
</x:xmpmeta>
                                                                                                    
                                                                                                    
                                                                                                    
                                                                                                    
                                                                                                    
                                                                                                    
                                                                                                    
                                                                                                    
                                                                                                    
                                                                                                    
                                                                                                    
                                                                                                    
                                                                                                    
                                                                                                    
                                                                                                    
                                                                                                    
                                                                                                    
                                                                                                    
                                                                                                    
                                                                                                    
                           
<?xpacket end="w"?></metadata>
<defs>
    <style>
      .cls-1 {
        filter: url(#filter);
      }

      .cls-2 {
        fill: none;
        stroke: #c49a6c;
        stroke-width: 4px;
      }

      .cls-2, .cls-3 {
        fill-rule: evenodd;
      }

      .cls-3 {
        fill: #c49a6c;
      }
    </style>
    <filter id="filter" filterUnits="userSpaceOnUse">
      <feFlood result="flood" flood-color="#ecac00"/>
      <feComposite result="composite" operator="in" in2="SourceGraphic"/>
      <feBlend result="blend" in2="SourceGraphic"/>
    </filter>
  </defs>
  <g id="大数据" class="cls-1">
    <path id="形状_15" data-name="形状 15" class="cls-2" d="M1011.06,3430c0,17.57-2.84,33.44-7.39,44.72-4.312,10.7-10.173,17.28-16.631,17.28-6.5,0-12.394-6.66-16.719-17.49-4.5-11.27-7.3-27.05-7.3-44.51,0-34.24,10.753-62,24.016-62S1011.06,3395.76,1011.06,3430Z" transform="translate(-929 -3366)"/>
    <path id="形状_15_拷贝_5" data-name="形状 15 拷贝 5" class="cls-2" d="M957.439,3471.13c-9.573,1.9-16.989.74-20.418-3.99-4.244-5.85-1.5-15.96,6.283-27.26" transform="translate(-929 -3366)"/>
    <path id="形状_15_拷贝_4" data-name="形状 15 拷贝 4" class="cls-2" d="M1017.35,3388.78c9.23-1.71,16.36-.49,19.71,4.12,4.23,5.83,1.51,15.9-6.23,27.17" transform="translate(-929 -3366)"/>
    <path id="形状_15_拷贝_3" data-name="形状 15 拷贝 3" class="cls-2" d="M1010.34,3417.72c21.92,18.89,33.66,39.86,26.72,49.42-7.41,10.22-33.48,3.78-59.625-14.24" transform="translate(-929 -3366)"/>
    <path id="形状_15_拷贝_2" data-name="形状 15 拷贝 2" class="cls-2" d="M963.672,3442.28c-21.875-18.89-33.587-39.82-26.653-49.38,3.843-5.29,12.709-6.11,24-3.15,9.98,2.61,21.858,8.17,33.841,16.19" transform="translate(-929 -3366)"/>
    <path id="形状_15_拷贝" data-name="形状 15 拷贝" class="cls-3" d="M937.006,3442a8,8,0,1,1-8.006,8A8,8,0,0,1,937.006,3442Zm90.064,22.25a7.754,7.754,0,1,1-8.01,7.75A7.877,7.877,0,0,1,1027.07,3464.25ZM997.046,3368a8,8,0,1,1-8.006,8A8,8,0,0,1,997.046,3368Z" transform="translate(-929 -3366)"/>
  </g>
</svg>
