<svg id="_2最小化" data-name="2最小化" xmlns="http://www.w3.org/2000/svg" width="80" height="79.532" viewBox="0 0 80 79.532">
  <metadata><?xpacket begin="﻿" id="W5M0MpCehiHzreSzNTczkc9d"?>
<x:xmpmeta xmlns:x="adobe:ns:meta/" x:xmptk="Adobe XMP Core 5.6-c138 79.159824, 2016/09/14-01:09:01        ">
   <rdf:RDF xmlns:rdf="http://www.w3.org/1999/02/22-rdf-syntax-ns#">
      <rdf:Description rdf:about=""/>
   </rdf:RDF>
</x:xmpmeta>
                                                                                                    
                                                                                                    
                                                                                                    
                                                                                                    
                                                                                                    
                                                                                                    
                                                                                                    
                                                                                                    
                                                                                                    
                                                                                                    
                                                                                                    
                                                                                                    
                                                                                                    
                                                                                                    
                                                                                                    
                                                                                                    
                                                                                                    
                                                                                                    
                                                                                                    
                                                                                                    
                           
<?xpacket end="w"?></metadata>
<defs>
    <style>
      .cls-1 {
        fill: none;
        stroke: #00cd82;
        stroke-linecap: round;
        stroke-linejoin: round;
        stroke-width: 3.001px;
        fill-rule: evenodd;
      }
    </style>
  </defs>
  <path id="_2" data-name="2" class="cls-1" d="M744.515,778.673a38.465,38.465,0,0,0-38.275,38.656v0.009h0.009c0.062-4.611,4.4-8.35,9.779-8.382,4.64-.028,8.538,2.714,9.6,6.429,1.014-3.724,4.878-6.548,9.519-6.548a7.69,7.69,0,0,1,7.106,3.839v33.508a5.794,5.794,0,0,0,6.039,4.518c4.485,0,4.86-5.978,2.313-5.964,0,0-.99,2.043-2.85,1.946-1.487-.077-2-2.5-2-2.5V812.676a10.231,10.231,0,0,1,8.507-3.955c4.642,0,8.539,2.717,9.6,6.43,1.014-3.728,4.879-6.52,9.519-6.549,5.376-.03,9.76,3.653,9.882,8.264l0.008,0v-0.008A38.466,38.466,0,0,0,744.515,778.673Z" transform="translate(-704.75 -772.656)"/>
  <path id="形状_26" data-name="形状 26" class="cls-1" d="M744.25,774.168v4" transform="translate(-704.75 -772.656)"/>
  <path id="形状_27_拷贝_2" data-name="形状 27 拷贝 2" class="cls-1" d="M726.244,802.174s-0.5-10.678,11.67-16.5" transform="translate(-704.75 -772.656)"/>
  <path id="形状_27_拷贝_3" data-name="形状 27 拷贝 3" class="cls-1" d="M761.772,802.174s0.493-10.678-11.546-16.5" transform="translate(-704.75 -772.656)"/>
</svg>
