<svg id="_1多元化" data-name="1多元化" xmlns="http://www.w3.org/2000/svg" width="80.063" height="76.063" viewBox="0 0 80.063 76.063">
  <metadata><?xpacket begin="﻿" id="W5M0MpCehiHzreSzNTczkc9d"?>
<x:xmpmeta xmlns:x="adobe:ns:meta/" x:xmptk="Adobe XMP Core 5.6-c138 79.159824, 2016/09/14-01:09:01        ">
   <rdf:RDF xmlns:rdf="http://www.w3.org/1999/02/22-rdf-syntax-ns#">
      <rdf:Description rdf:about=""/>
   </rdf:RDF>
</x:xmpmeta>
                                                                                                    
                                                                                                    
                                                                                                    
                                                                                                    
                                                                                                    
                                                                                                    
                                                                                                    
                                                                                                    
                                                                                                    
                                                                                                    
                                                                                                    
                                                                                                    
                                                                                                    
                                                                                                    
                                                                                                    
                                                                                                    
                                                                                                    
                                                                                                    
                                                                                                    
                                                                                                    
                           
<?xpacket end="w"?></metadata>
<defs>
    <style>
      .cls-1 {
        fill: none;
        stroke: #00cd82;
        stroke-width: 3.001px;
        fill-rule: evenodd;
      }
    </style>
  </defs>
  <path id="_1" data-name="1" class="cls-1" d="M409.5,797.692c0-3.5-2.828-7.022-9.15-7.022-5.567,0-9.308,2.822-9.308,7.022A5.738,5.738,0,0,0,392.705,802a1.411,1.411,0,0,1,.493.742c0,0.291,0,.467-1.012.506H381.118c-4.257,0-7.991,3.36-7.991,7.19v6.708c0.069,1.7,1.036,2.752,2.525,2.752a3.451,3.451,0,0,0,2.086-.945,5.229,5.229,0,0,1,3.555-1.325c3.079,0,6.352,2.519,6.352,7.189,0,4.726-3.318,8.02-6.295,8.02a5.091,5.091,0,0,1-3.568-1.451,3.414,3.414,0,0,0-2.13-1.038c-1.489,0-2.456,1.055-2.525,2.788v7.373c0,4.016,3.808,7.674,7.991,7.674h11.123c1.683-.067,2.772-1.052,2.772-2.509a2.833,2.833,0,0,0-.949-1.934,3.963,3.963,0,0,1-1.208-3.117c0-3.175,2.91-5.226,7.413-5.226s7.415,2.051,7.415,5.226a3.971,3.971,0,0,1-1.208,3.117,2.832,2.832,0,0,0-.95,1.934c0,1.477,1.061,2.437,2.809,2.507l7.153,0c3.906,0,6.635-3.014,6.635-7.329V832.5a1.718,1.718,0,0,1,1.459-1.058,1.43,1.43,0,0,1,.742.487,5.812,5.812,0,0,0,4.343,1.657c3.964,0,7.978-3.01,7.978-8.765,0-6.208-3.645-8.987-7.259-8.987a7.2,7.2,0,0,0-4.78,1.833,2.659,2.659,0,0,1-1.024.629,1.74,1.74,0,0,1-1.455-1.027c0-.015,0-0.029,0-0.043v-6.439c0-4.365-2.791-7.535-6.635-7.535h-7.116l-0.072,0c-0.959-.035-0.959-0.21-0.959-0.5a1.41,1.41,0,0,1,.492-0.742A5.737,5.737,0,0,0,409.5,797.692Z" transform="translate(-371.625 -773.625)"/>
  <path id="_1_拷贝" data-name="1 拷贝" class="cls-1" d="M438.647,816.177v-7a10.6,10.6,0,0,1,.079-1.874,1.338,1.338,0,0,1,.7.463,5.475,5.475,0,0,0,4.092,1.566c3.318,0,6.665-2.659,6.665-8.6,0-5.234-2.679-8.751-6.665-8.751a5.475,5.475,0,0,0-4.092,1.564,1.338,1.338,0,0,1-.7.463c-0.276,0-.041-0.882-0.079-1.833v-10.5c0-4-3.59-6.534-7.225-6.534h-6.367c-1.611.065-2.612,0.975-2.612,2.374a3.229,3.229,0,0,0,.9,1.961,4.9,4.9,0,0,1,1.258,3.343c0,2.894-2.392,5.971-6.824,5.971-4.485,0-7.612-3.119-7.612-5.918a4.765,4.765,0,0,1,1.377-3.354,3.2,3.2,0,0,0,.986-2c0-1.4-1-2.309-2.647-2.374h-7a7.694,7.694,0,0,0-7.283,7.513l0,4.124" transform="translate(-371.625 -773.625)"/>
</svg>
