<svg id="减负" xmlns="http://www.w3.org/2000/svg" width="158" height="72" viewBox="0 0 158 72">
  <metadata><?xpacket begin="﻿" id="W5M0MpCehiHzreSzNTczkc9d"?>
<x:xmpmeta xmlns:x="adobe:ns:meta/" x:xmptk="Adobe XMP Core 5.6-c138 79.159824, 2016/09/14-01:09:01        ">
   <rdf:RDF xmlns:rdf="http://www.w3.org/1999/02/22-rdf-syntax-ns#">
      <rdf:Description rdf:about=""/>
   </rdf:RDF>
</x:xmpmeta>
                                                                                                    
                                                                                                    
                                                                                                    
                                                                                                    
                                                                                                    
                                                                                                    
                                                                                                    
                                                                                                    
                                                                                                    
                                                                                                    
                                                                                                    
                                                                                                    
                                                                                                    
                                                                                                    
                                                                                                    
                                                                                                    
                                                                                                    
                                                                                                    
                                                                                                    
                                                                                                    
                           
<?xpacket end="w"?></metadata>
<defs>
    <style>
      .cls-1 {
        fill: none;
        stroke: #00bdec;
        stroke-linejoin: round;
        stroke-width: 4px;
        fill-rule: evenodd;
      }
    </style>
  </defs>
  <path id="形状_26" data-name="形状 26" class="cls-1" d="M1734.44,4028.43c4.68-5.92,6.26,11.1,29.88,21.76,6.25-4.18,18.68-13.75,29.81-15.23a1.376,1.376,0,0,1,1.3.63,1.493,1.493,0,0,1,.08,1.5q-3.54,6.69-7.77,13.07a99.251,99.251,0,0,0,15.84-13.6c3.77-3.98,5.99-3.66,11.64-3.89,38.2-1.56,72.78-15.66,72.78-15.66s-5.58,16.01-9.28,23.31c-4.92,9.71-13.41,13.8-28.6,20.63a79.978,79.978,0,0,0,14.69,0s-14.61,22.36-45.49,23.93c-45.08,2.29-55.99-27.67-56.55-29.31C1734.91,4042.99,1732.71,4032.88,1734.44,4028.43Z" transform="translate(-1732 -4015)"/>
  <path id="形状_27" data-name="形状 27" class="cls-1" d="M1864.03,4040.32s-40.86,45.93-92.75,16.14" transform="translate(-1732 -4015)"/>
</svg>
