<svg xmlns="http://www.w3.org/2000/svg" xmlns:xlink="http://www.w3.org/1999/xlink" width="167.72" height="98.38" viewBox="0 0 167.72 98.38">
  <metadata><?xpacket begin="﻿" id="W5M0MpCehiHzreSzNTczkc9d"?>
<x:xmpmeta xmlns:x="adobe:ns:meta/" x:xmptk="Adobe XMP Core 5.6-c138 79.159824, 2016/09/14-01:09:01        ">
   <rdf:RDF xmlns:rdf="http://www.w3.org/1999/02/22-rdf-syntax-ns#">
      <rdf:Description rdf:about=""/>
   </rdf:RDF>
</x:xmpmeta>
                                                                                                    
                                                                                                    
                                                                                                    
                                                                                                    
                                                                                                    
                                                                                                    
                                                                                                    
                                                                                                    
                                                                                                    
                                                                                                    
                                                                                                    
                                                                                                    
                                                                                                    
                                                                                                    
                                                                                                    
                                                                                                    
                                                                                                    
                                                                                                    
                                                                                                    
                                                                                                    
                           
<?xpacket end="w"?></metadata>
<defs>
    <style>
      .cls-1 {
        filter: url(#filter);
      }

      .cls-2 {
        fill: none;
        stroke: #c49a6c;
        stroke-width: 4px;
        fill-rule: evenodd;
      }
    </style>
    <filter id="filter" filterUnits="userSpaceOnUse">
      <feFlood result="flood" flood-color="#ec5e00"/>
      <feComposite result="composite" operator="in" in2="SourceGraphic"/>
      <feBlend result="blend" in2="SourceGraphic"/>
    </filter>
  </defs>
  <g id="获客" class="cls-1">
    <path id="形状_13" data-name="形状 13" class="cls-2" d="M1121.81,4074.89h-50.17c0-19.81,18.07-21.13,23.47-23.77,3.37-1.65,8.15-4.48,8.15-7.13a2.9,2.9,0,0,0-1.04-2.55c-6.64-3.58-8.03-15.41-8.46-15.41-2.24,0-3.8-5.43-3.8-9.08,0-2.87.89-2.81,2.46-3.72,0-.14-0.01-0.27-0.01-0.4,0-9.48,6.49-17.19,16.17-17.19s16.23,7.98,16.23,17.46c0,0.13,0,.27-0.01.4,1.58,0.91,2.2,1.34,2.2,4.22,0,3.65-1.3,8.79-3.54,8.79-0.43,0-1.78,11.24-8.13,14.99a2.39,2.39,0,0,0-1.05,2.11c0,3.05,4.92,5.77,8.48,7.51,3.38,1.66,15.4,3.13,20.58,13.01" transform="translate(-1069.62 -3993.62)"/>
    <path id="形状_13_拷贝_2" data-name="形状 13 拷贝 2" class="cls-2" d="M1163.3,4064.78c4.89-10.31,17.14-11.57,21.42-13.66,3.37-1.65,8.15-4.48,8.15-7.13a2.9,2.9,0,0,0-1.04-2.55c-6.64-3.58-7.7-15.41-8.13-15.41-2.23,0-3.79-5.43-3.79-9.08,0-2.87.88-2.81,2.45-3.72,0-.14-0.01-0.27-0.01-0.4,0-9.48,6.15-17.19,15.84-17.19s16.57,7.98,16.57,17.46c0,0.13-.01.27-0.02,0.4,1.58,0.91,2.21,1.34,2.21,4.22,0,3.65-1.31,8.79-3.55,8.79-0.42,0-2.12,11.24-8.46,14.99a2.39,2.39,0,0,0-1.05,2.11c0,3.05,4.92,5.77,8.48,7.51,4.35,2.13,22.99,3.96,22.99,23.77h-52.15" transform="translate(-1069.62 -3993.62)"/>
    <path id="形状_13_拷贝" data-name="形状 13 拷贝" class="cls-2" d="M1139.42,4066.31c3.37-1.65,8.15-4.46,8.15-7.11a2.92,2.92,0,0,0-1.04-2.54c-6.64-3.57-7.69-15.37-8.12-15.37-2.23,0-3.79-5.41-3.79-9.05,0-2.86.88-2.81,2.45-3.71,0-.14-0.01-0.27-0.01-0.4,0-9.45,6.14-17.14,15.82-17.14s16.55,7.95,16.55,17.41c0,0.13-.01.27-0.02,0.4,1.58,0.9,2.2,1.34,2.2,4.2,0,3.64-1.3,8.77-3.54,8.77-0.43,0-2.12,11.21-8.46,14.95a2.4,2.4,0,0,0-1.04,2.1c0,3.05,4.91,5.76,8.47,7.49,4.34,2.13,22.96,3.95,22.96,23.7h-74.01C1115.99,4070.26,1134.03,4068.95,1139.42,4066.31Z" transform="translate(-1069.62 -3993.62)"/>
  </g>
</svg>
