<svg id="_2建模" data-name="2建模" xmlns="http://www.w3.org/2000/svg" width="60" height="80" viewBox="0 0 60 80">
  <metadata><?xpacket begin="﻿" id="W5M0MpCehiHzreSzNTczkc9d"?>
<x:xmpmeta xmlns:x="adobe:ns:meta/" x:xmptk="Adobe XMP Core 5.6-c138 79.159824, 2016/09/14-01:09:01        ">
   <rdf:RDF xmlns:rdf="http://www.w3.org/1999/02/22-rdf-syntax-ns#">
      <rdf:Description rdf:about=""/>
   </rdf:RDF>
</x:xmpmeta>
                                                                                                    
                                                                                                    
                                                                                                    
                                                                                                    
                                                                                                    
                                                                                                    
                                                                                                    
                                                                                                    
                                                                                                    
                                                                                                    
                                                                                                    
                                                                                                    
                                                                                                    
                                                                                                    
                                                                                                    
                                                                                                    
                                                                                                    
                                                                                                    
                                                                                                    
                                                                                                    
                           
<?xpacket end="w"?></metadata>
<defs>
    <style>
      .cls-1 {
        fill: none;
      }

      .cls-1, .cls-2 {
        stroke: #534ff0;
        stroke-width: 3.001px;
        fill-rule: evenodd;
      }

      .cls-2 {
        fill: #fff;
      }
    </style>
  </defs>
  <path id="椭圆_13" data-name="椭圆 13" class="cls-1" d="M758.832,826.659l-2.775,5.843H733.443l-2.774-5.843A28.51,28.51,0,1,1,758.832,826.659Z" transform="translate(-714.75 -772)"/>
  <path id="多边形_1" data-name="多边形 1" class="cls-1" d="M744.757,816.5l11.5-20H733.253Z" transform="translate(-714.75 -772)"/>
  <path id="椭圆_14" data-name="椭圆 14" class="cls-2" d="M733.246,793a4,4,0,1,1-4,4A4,4,0,0,1,733.246,793Zm11.5,20a4,4,0,1,1-4,4A4,4,0,0,1,744.75,813Zm11.5-20a4,4,0,1,1-4,4A4,4,0,0,1,756.254,793Z" transform="translate(-714.75 -772)"/>
  <path id="矩形_23" data-name="矩形 23" class="cls-1" d="M734.746,832.5h20.008a3,3,0,0,1,0,6H734.746A3,3,0,0,1,734.746,832.5Zm0,6h20.008a3,3,0,0,1,0,6H734.746A3,3,0,0,1,734.746,838.5Zm0,6h20.008a3,3,0,0,1,0,6H734.746A3,3,0,0,1,734.746,844.5Z" transform="translate(-714.75 -772)"/>
</svg>
