<svg id="_1分析" data-name="1分析" xmlns="http://www.w3.org/2000/svg" width="78" height="71.406" viewBox="0 0 78 71.406">
  <metadata><?xpacket begin="﻿" id="W5M0MpCehiHzreSzNTczkc9d"?>
<x:xmpmeta xmlns:x="adobe:ns:meta/" x:xmptk="Adobe XMP Core 5.6-c138 79.159824, 2016/09/14-01:09:01        ">
   <rdf:RDF xmlns:rdf="http://www.w3.org/1999/02/22-rdf-syntax-ns#">
      <rdf:Description rdf:about=""/>
   </rdf:RDF>
</x:xmpmeta>
                                                                                                    
                                                                                                    
                                                                                                    
                                                                                                    
                                                                                                    
                                                                                                    
                                                                                                    
                                                                                                    
                                                                                                    
                                                                                                    
                                                                                                    
                                                                                                    
                                                                                                    
                                                                                                    
                                                                                                    
                                                                                                    
                                                                                                    
                                                                                                    
                                                                                                    
                                                                                                    
                           
<?xpacket end="w"?></metadata>
<defs>
    <style>
      .cls-1, .cls-2 {
        fill: none;
      }

      .cls-1, .cls-2, .cls-3 {
        stroke: #534ff0;
        stroke-width: 3.001px;
      }

      .cls-1, .cls-3 {
        fill-rule: evenodd;
      }

      .cls-3 {
        fill: #fff;
      }
    </style>
  </defs>
  <path id="椭圆_22_拷贝" data-name="椭圆 22 拷贝" class="cls-1" d="M380.887,780.887c7.42-7.42,27.365.5,44.548,17.678s25.1,37.128,17.678,44.548-27.365-.5-44.548-17.678S373.467,788.307,380.887,780.887Zm0.418,61.808c-7.44-7.44.5-27.437,17.724-44.666s37.226-25.164,44.666-17.724-0.5,27.437-17.724,44.666S388.745,850.135,381.305,842.7Z" transform="translate(-373.5 -776)"/>
  <path id="椭圆_19" data-name="椭圆 19" class="cls-1" d="M411.638,804c8.84,0,16.006,8,16.006,8s-7.166,8-16.006,8-16-8-16-8S402.8,804,411.638,804Z" transform="translate(-373.5 -776)"/>
  <circle id="椭圆_20" data-name="椭圆 20" class="cls-2" cx="38.125" cy="36" r="7"/>
  <path id="椭圆_17" data-name="椭圆 17" class="cls-3" d="M380,792a5,5,0,1,1-5,5A5,5,0,0,1,380,792Zm65,31a5,5,0,1,1-5,5A5,5,0,0,1,445,823Z" transform="translate(-373.5 -776)"/>
</svg>
