<svg id="数据集成" xmlns="http://www.w3.org/2000/svg" width="80.001" height="80.001" viewBox="0 0 80.001 80.001">
  <metadata><?xpacket begin="﻿" id="W5M0MpCehiHzreSzNTczkc9d"?>
<x:xmpmeta xmlns:x="adobe:ns:meta/" x:xmptk="Adobe XMP Core 5.6-c138 79.159824, 2016/09/14-01:09:01        ">
   <rdf:RDF xmlns:rdf="http://www.w3.org/1999/02/22-rdf-syntax-ns#">
      <rdf:Description rdf:about=""/>
   </rdf:RDF>
</x:xmpmeta>
                                                                                                    
                                                                                                    
                                                                                                    
                                                                                                    
                                                                                                    
                                                                                                    
                                                                                                    
                                                                                                    
                                                                                                    
                                                                                                    
                                                                                                    
                                                                                                    
                                                                                                    
                                                                                                    
                                                                                                    
                                                                                                    
                                                                                                    
                                                                                                    
                                                                                                    
                                                                                                    
                           
<?xpacket end="w"?></metadata>
<defs>
    <style>
      .cls-1, .cls-3, .cls-4 {
        fill: none;
        stroke: #8a00ff;
        stroke-width: 3.001px;
      }

      .cls-1, .cls-2, .cls-3, .cls-4 {
        fill-rule: evenodd;
      }

      .cls-2 {
        fill: #8a00ff;
      }

      .cls-3 {
        stroke-linecap: round;
      }

      .cls-4 {
        stroke-linejoin: round;
      }
    </style>
  </defs>
  <path id="椭圆_9" data-name="椭圆 9" class="cls-1" d="M1104,811.972v0.013h-49.5v-0.013a14.73,14.73,0,0,1-2.15-29.262,9.737,9.737,0,0,1,12.37-6.746,22.733,22.733,0,0,1,42.74,10.07A13.233,13.233,0,0,1,1104,811.972ZM1048.5,822a5.5,5.5,0,1,1-5.5,5.5A5.5,5.5,0,0,1,1048.5,822Zm21.99,8a5.5,5.5,0,1,1-5.5,5.5A5.5,5.5,0,0,1,1070.49,830Zm16.02,0a5.5,5.5,0,1,1-5.5,5.5A5.5,5.5,0,0,1,1086.51,830Zm21.99-8a5.5,5.5,0,1,1-5.5,5.5A5.5,5.5,0,0,1,1108.5,822Z" transform="translate(-1038.499 -762.499)"/>
  <path id="椭圆_9_拷贝" data-name="椭圆 9 拷贝" class="cls-2" d="M1085,812h3v19h-3V812Zm-16,0h3v19h-3V812Zm9.5-24a1.5,1.5,0,0,1,1.5,1.5v10a1.5,1.5,0,0,1-3,0v-10A1.5,1.5,0,0,1,1078.5,788Z" transform="translate(-1038.499 -762.499)"/>
  <path id="矩形_22" data-name="矩形 22" class="cls-3" d="M1071.99,792.985l6.51-6.977,6.51,6.977" transform="translate(-1038.499 -762.499)"/>
  <path id="形状_24_拷贝" data-name="形状 24 拷贝" class="cls-4" d="M1097.99,811.009v13.94a3.292,3.292,0,0,0,3,3.035H1104" transform="translate(-1038.499 -762.499)"/>
  <path id="形状_24_拷贝_2" data-name="形状 24 拷贝 2" class="cls-4" d="M1059.01,811.009v13.966a3.294,3.294,0,0,1-3,3.04H1053" transform="translate(-1038.499 -762.499)"/>
</svg>
