<svg id="人工智能" xmlns="http://www.w3.org/2000/svg" width="79" height="80.032" viewBox="0 0 79 80.032">
  <metadata><?xpacket begin="﻿" id="W5M0MpCehiHzreSzNTczkc9d"?>
<x:xmpmeta xmlns:x="adobe:ns:meta/" x:xmptk="Adobe XMP Core 5.6-c138 79.159824, 2016/09/14-01:09:01        ">
   <rdf:RDF xmlns:rdf="http://www.w3.org/1999/02/22-rdf-syntax-ns#">
      <rdf:Description rdf:about=""/>
   </rdf:RDF>
</x:xmpmeta>
                                                                                                    
                                                                                                    
                                                                                                    
                                                                                                    
                                                                                                    
                                                                                                    
                                                                                                    
                                                                                                    
                                                                                                    
                                                                                                    
                                                                                                    
                                                                                                    
                                                                                                    
                                                                                                    
                                                                                                    
                                                                                                    
                                                                                                    
                                                                                                    
                                                                                                    
                                                                                                    
                           
<?xpacket end="w"?></metadata>
<defs>
    <style>
      .cls-1 {
        fill: none;
        stroke: #8a00ff;
        stroke-linejoin: round;
        stroke-width: 3.001px;
      }

      .cls-1, .cls-2 {
        fill-rule: evenodd;
      }

      .cls-2 {
        fill: #8a00ff;
      }
    </style>
  </defs>
  <path id="形状_23_拷贝" data-name="形状 23 拷贝" class="cls-1" d="M395.633,775.664s6.329-9.423,17.979-11.2c5.825-.89,14.524.188,20.724,3.982,14.953,9.159,9.895,24.566,9.895,24.566l4.721,9.015a2.621,2.621,0,0,1,.679,1.662,1.717,1.717,0,0,1-.814,1.719,24.05,24.05,0,0,1-4.191.648l-0.6,1.24c0.987,1.008,1.185,1.215,1.305,1.83a1.451,1.451,0,0,1-.409,1.023c-0.2.312-1.21,1.782-1.21,1.782a3.089,3.089,0,0,1,.684,1.292,1.424,1.424,0,0,1-.11,1.133c-0.213.4-1.759,1.575-1.942,1.839a0.6,0.6,0,0,0-.091.548c1.194,3.713-.781,5.96-1.286,6.354-2.193,1.864-10.131-.86-11.606-0.658-0.737.111-1.522,2.776-2.114,5.437a6.943,6.943,0,0,0,.472,4.433c0.639,1.385.591,1.236,8.136,8.846l-33.844.021" transform="translate(-372.125 -762.656)"/>
  <path class="cls-2" d="M409.711,821.8c-0.615-.37-1.247-0.742-1.878-1.106a16.385,16.385,0,0,0,0-3.808c0.633-.365,1.264-0.737,1.877-1.105a2.465,2.465,0,0,0,1-3.04h0l-1.345-3.247a2.467,2.467,0,0,0-2.857-1.444c-0.694.173-1.4,0.356-2.109,0.546a16.368,16.368,0,0,0-2.693-2.692c0.189-.706.373-1.416,0.546-2.109a2.468,2.468,0,0,0-1.444-2.857l-3.247-1.345a2.467,2.467,0,0,0-3.041,1c-0.369.614-.741,1.246-1.106,1.878a16.385,16.385,0,0,0-3.808,0c-0.366-.634-0.737-1.265-1.105-1.877a2.468,2.468,0,0,0-3.041-1l-3.248,1.345a2.468,2.468,0,0,0-1.443,2.857c0.173,0.7.357,1.4,0.546,2.109a16.323,16.323,0,0,0-2.692,2.692c-0.708-.19-1.418-0.373-2.11-0.546a2.467,2.467,0,0,0-2.857,1.444l-1.345,3.247a2.466,2.466,0,0,0,1,3.04c0.614,0.369,1.246.741,1.878,1.106a16.377,16.377,0,0,0,0,3.807c-0.633.365-1.264,0.737-1.878,1.106a2.466,2.466,0,0,0-1,3.04l1.345,3.247a2.468,2.468,0,0,0,2.857,1.444c0.693-.173,1.4-0.357,2.109-0.546a16.362,16.362,0,0,0,2.693,2.691c-0.19.708-.373,1.417-0.546,2.11a2.466,2.466,0,0,0,1.443,2.856l3.248,1.345a2.429,2.429,0,0,0,.93.185,2.469,2.469,0,0,0,2.112-1.183c0.366-.61.737-1.241,1.105-1.878a16.44,16.44,0,0,0,3.808,0c0.363,0.629.735,1.26,1.1,1.877a2.469,2.469,0,0,0,3.041,1l3.248-1.345a2.468,2.468,0,0,0,1.443-2.857c-0.171-.689-0.355-1.4-0.545-2.109a16.4,16.4,0,0,0,2.692-2.692c0.706,0.189,1.415.373,2.109,0.546a2.467,2.467,0,0,0,2.857-1.444l1.345-3.247A2.466,2.466,0,0,0,409.711,821.8ZM407,826.958c-0.667-.167-1.347-0.344-2.023-0.526a2.447,2.447,0,0,0-2.574.858,13.755,13.755,0,0,1-2.4,2.4,2.445,2.445,0,0,0-.857,2.573c0.183,0.68.36,1.36,0.526,2.022l-2.986,1.236c-0.355-.592-0.71-1.2-1.058-1.8a2.447,2.447,0,0,0-2.425-1.214,13.725,13.725,0,0,1-3.389,0,2.447,2.447,0,0,0-2.427,1.213c-0.351.61-.707,1.216-1.058,1.8l-2.986-1.236c0.167-.666.344-1.346,0.526-2.023a2.447,2.447,0,0,0-.858-2.574,13.72,13.72,0,0,1-2.4-2.395,2.445,2.445,0,0,0-2.573-.857c-0.677.182-1.356,0.359-2.022,0.526l-1.237-2.985c0.59-.354,1.2-0.709,1.8-1.059a2.446,2.446,0,0,0,1.214-2.424,13.726,13.726,0,0,1,0-3.389,2.446,2.446,0,0,0-1.213-2.426c-0.606-.349-1.212-0.7-1.8-1.059l1.237-2.985c0.665,0.166,1.345.343,2.023,0.526a2.449,2.449,0,0,0,2.574-.858,13.761,13.761,0,0,1,2.4-2.4,2.448,2.448,0,0,0,.857-2.573c-0.182-.674-0.359-1.354-0.526-2.022l2.985-1.236c0.353,0.588.709,1.194,1.059,1.8a2.446,2.446,0,0,0,2.424,1.213,13.685,13.685,0,0,1,3.39,0,2.448,2.448,0,0,0,2.427-1.214c0.349-.606.7-1.212,1.058-1.8l2.986,1.236c-0.167.667-.344,1.347-0.526,2.023a2.447,2.447,0,0,0,.858,2.574,13.761,13.761,0,0,1,2.4,2.4,2.445,2.445,0,0,0,2.573.856c0.676-.182,1.356-0.359,2.022-0.526l1.236,2.985c-0.589.353-1.194,0.709-1.8,1.059a2.445,2.445,0,0,0-1.214,2.424,13.726,13.726,0,0,1,0,3.389,2.448,2.448,0,0,0,1.214,2.427c0.605,0.348,1.211.7,1.8,1.058Zm-7.241-11.579h0a8.936,8.936,0,1,0-4.831,11.663,8.936,8.936,0,0,0,4.831-11.663Zm-5.834,9.242a6.307,6.307,0,1,1,3.414-8.24A6.263,6.263,0,0,1,393.924,824.621ZM428.879,791.2c-0.452-.068-0.916-0.133-1.384-0.2a12.267,12.267,0,0,0-.939-2.265c0.286-.374.568-0.749,0.841-1.117a2.086,2.086,0,0,0-.2-2.7l-1.806-1.806a2.086,2.086,0,0,0-2.7-.2c-0.37.273-.745,0.555-1.118,0.84a12.239,12.239,0,0,0-2.265-.939c-0.063-.467-0.128-0.931-0.2-1.384a2.086,2.086,0,0,0-2.053-1.765H414.5a2.087,2.087,0,0,0-2.053,1.765c-0.067.452-.133,0.917-0.195,1.384a12.248,12.248,0,0,0-2.266.939c-0.372-.285-0.748-0.567-1.117-0.841a2.087,2.087,0,0,0-2.7.2l-1.807,1.806a2.086,2.086,0,0,0-.2,2.7c0.272,0.368.554,0.743,0.84,1.117a12.167,12.167,0,0,0-.938,2.265c-0.468.063-.932,0.128-1.384,0.2a2.087,2.087,0,0,0-1.766,2.053v2.554a2.087,2.087,0,0,0,1.765,2.053c0.452,0.068.917,0.133,1.385,0.2a12.167,12.167,0,0,0,.938,2.265c-0.286.374-.568,0.749-0.841,1.117a2.087,2.087,0,0,0,.2,2.7l1.807,1.806a2.086,2.086,0,0,0,2.7.2c0.369-.273.744-0.555,1.117-0.84a12.248,12.248,0,0,0,2.266.939c0.062,0.467.128,0.932,0.195,1.384A2.087,2.087,0,0,0,414.5,809.4h2.555a2.086,2.086,0,0,0,2.053-1.765c0.068-.452.133-0.917,0.2-1.384a12.239,12.239,0,0,0,2.265-.939c0.373,0.285.748,0.567,1.118,0.84a2.086,2.086,0,0,0,2.7-.2l1.806-1.806a2.087,2.087,0,0,0,.2-2.7c-0.273-.368-0.555-0.744-0.841-1.117a12.239,12.239,0,0,0,.939-2.265c0.467-.063.932-0.128,1.384-0.2a2.086,2.086,0,0,0,1.766-2.052v-2.555A2.087,2.087,0,0,0,428.879,791.2Zm-0.723,4.252c-0.41.059-.829,0.117-1.25,0.172a2.069,2.069,0,0,0-1.733,1.5,9.665,9.665,0,0,1-.915,2.208,2.071,2.071,0,0,0,.162,2.29c0.258,0.335.513,0.672,0.762,1l-1.3,1.3c-0.334-.25-0.672-0.506-1.006-0.763a2.073,2.073,0,0,0-2.29-.162,9.684,9.684,0,0,1-2.208.915,2.069,2.069,0,0,0-1.5,1.733c-0.055.421-.113,0.84-0.173,1.25h-1.843c-0.06-.41-0.117-0.829-0.172-1.249a2.073,2.073,0,0,0-1.5-1.734,9.691,9.691,0,0,1-2.209-.915,2.071,2.071,0,0,0-2.289.162c-0.335.258-.672,0.513-1.007,0.763l-1.3-1.3c0.249-.333.5-0.67,0.762-1.006a2.069,2.069,0,0,0,.162-2.289,9.684,9.684,0,0,1-.915-2.208,2.069,2.069,0,0,0-1.733-1.5c-0.421-.055-0.839-0.113-1.25-0.173v-1.843c0.411-.059.829-0.117,1.25-0.172a2.069,2.069,0,0,0,1.733-1.5,9.673,9.673,0,0,1,.915-2.209,2.069,2.069,0,0,0-.162-2.289c-0.258-.336-0.513-0.673-0.762-1.006l1.3-1.3c0.335,0.249.672,0.5,1.006,0.762a2.071,2.071,0,0,0,2.29.162,9.673,9.673,0,0,1,2.209-.915,2.072,2.072,0,0,0,1.5-1.733c0.054-.42.112-0.839,0.172-1.25H416.7c0.06,0.411.118,0.829,0.172,1.249a2.072,2.072,0,0,0,1.5,1.734,9.673,9.673,0,0,1,2.209.915,2.071,2.071,0,0,0,2.29-.162c0.334-.257.671-0.513,1.006-0.762l1.3,1.3c-0.248.333-.5,0.67-0.762,1.006a2.069,2.069,0,0,0-.162,2.289,9.691,9.691,0,0,1,.915,2.209,2.069,2.069,0,0,0,1.733,1.5c0.421,0.055.84,0.113,1.25,0.173v1.843h0Zm-12.378-6.225a5.3,5.3,0,1,0,5.3,5.3A5.31,5.31,0,0,0,415.778,789.227Zm0,8.249a2.946,2.946,0,1,1,2.946-2.946A2.95,2.95,0,0,1,415.778,797.476Z" transform="translate(-372.125 -762.656)"/>
</svg>
