<svg id="_3画像" data-name="3画像" xmlns="http://www.w3.org/2000/svg" width="80.04" height="80" viewBox="0 0 80.04 80">
  <metadata><?xpacket begin="﻿" id="W5M0MpCehiHzreSzNTczkc9d"?>
<x:xmpmeta xmlns:x="adobe:ns:meta/" x:xmptk="Adobe XMP Core 5.6-c138 79.159824, 2016/09/14-01:09:01        ">
   <rdf:RDF xmlns:rdf="http://www.w3.org/1999/02/22-rdf-syntax-ns#">
      <rdf:Description rdf:about=""/>
   </rdf:RDF>
</x:xmpmeta>
                                                                                                    
                                                                                                    
                                                                                                    
                                                                                                    
                                                                                                    
                                                                                                    
                                                                                                    
                                                                                                    
                                                                                                    
                                                                                                    
                                                                                                    
                                                                                                    
                                                                                                    
                                                                                                    
                                                                                                    
                                                                                                    
                                                                                                    
                                                                                                    
                                                                                                    
                                                                                                    
                           
<?xpacket end="w"?></metadata>
<defs>
    <style>
      .cls-1, .cls-2 {
        fill: none;
      }

      .cls-1, .cls-2, .cls-3 {
        stroke: #534ff0;
        stroke-width: 3.001px;
      }

      .cls-1, .cls-3 {
        fill-rule: evenodd;
      }

      .cls-3 {
        fill: #fff;
      }
    </style>
  </defs>
  <path id="形状_13_拷贝" data-name="形状 13 拷贝" class="cls-1" d="M1062.86,828.5c0-8,7.31-8.53,9.5-9.6,1.37-.667,3.3-1.808,3.3-2.878a1.162,1.162,0,0,0-.42-1.031c-2.69-1.443-3.12-6.221-3.29-6.221-0.91,0-1.54-2.193-1.54-3.665,0-1.162.36-1.138,1-1.5,0-.055-0.01-0.11-0.01-0.16,0-3.828,2.49-6.944,6.42-6.944a6.791,6.791,0,0,1,6.71,7.051c0,0.052-.01.108-0.01,0.162a1.465,1.465,0,0,1,.89,1.7c0,1.474-.53,3.55-1.43,3.55-0.18,0-.86,4.54-3.43,6.054a0.969,0.969,0,0,0-.43.851c0,1.233,2,2.33,3.44,3.033,1.76,0.86,9.31,1.6,9.31,9.6" transform="translate(-1037.84 -772)"/>
  <circle id="椭圆_11" data-name="椭圆 11" class="cls-2" cx="40.02" cy="40" r="32.52"/>
  <path id="椭圆_12" data-name="椭圆 12" class="cls-3" d="M1045.35,806a6,6,0,1,1-6,6A6,6,0,0,1,1045.35,806Zm65.02,0a6,6,0,1,1-6,6A6,6,0,0,1,1110.37,806Zm-32.51-32.5a6,6,0,1,1-6,6A6,6,0,0,1,1077.86,773.5Zm0,65a6,6,0,1,1-6,6A6,6,0,0,1,1077.86,838.5Z" transform="translate(-1037.84 -772)"/>
</svg>
