<svg id="大数据" xmlns="http://www.w3.org/2000/svg" width="66.031" height="76.094" viewBox="0 0 66.031 76.094">
  <metadata><?xpacket begin="﻿" id="W5M0MpCehiHzreSzNTczkc9d"?>
<x:xmpmeta xmlns:x="adobe:ns:meta/" x:xmptk="Adobe XMP Core 5.6-c138 79.159824, 2016/09/14-01:09:01        ">
   <rdf:RDF xmlns:rdf="http://www.w3.org/1999/02/22-rdf-syntax-ns#">
      <rdf:Description rdf:about=""/>
   </rdf:RDF>
</x:xmpmeta>
                                                                                                    
                                                                                                    
                                                                                                    
                                                                                                    
                                                                                                    
                                                                                                    
                                                                                                    
                                                                                                    
                                                                                                    
                                                                                                    
                                                                                                    
                                                                                                    
                                                                                                    
                                                                                                    
                                                                                                    
                                                                                                    
                                                                                                    
                                                                                                    
                                                                                                    
                                                                                                    
                           
<?xpacket end="w"?></metadata>
<defs>
    <style>
      .cls-1 {
        fill: none;
        stroke: #8a00ff;
        stroke-width: 3.001px;
      }

      .cls-1, .cls-2 {
        fill-rule: evenodd;
      }

      .cls-2 {
        fill: #8a00ff;
      }
    </style>
  </defs>
  <path id="形状_15" data-name="形状 15" class="cls-1" d="M760.43,802.67c0,10.356-1.66,19.708-4.327,26.356-2.53,6.31-5.966,10.186-9.752,10.186-3.81,0-7.267-3.928-9.8-10.308-2.639-6.643-4.278-15.944-4.278-26.234,0-20.181,6.3-36.542,14.08-36.542S760.43,782.489,760.43,802.67Z" transform="translate(-712.25 -764.625)"/>
  <path id="形状_15_拷贝_5" data-name="形状 15 拷贝 5" class="cls-1" d="M728.921,826.613c-5.615,1.117-9.965.434-11.977-2.345-2.489-3.44-.88-9.384,3.685-16.029" transform="translate(-712.25 -764.625)"/>
  <path id="形状_15_拷贝_4" data-name="形状 15 拷贝 4" class="cls-1" d="M764.064,778.194c5.412-1,9.6-.286,11.559,2.424,2.482,3.429.888,9.352-3.651,15.975" transform="translate(-712.25 -764.625)"/>
  <path id="形状_15_拷贝_3" data-name="形状 15 拷贝 3" class="cls-1" d="M759.954,795.208c12.855,11.111,19.741,23.437,15.671,29.059-4.347,6.007-19.639,2.223-34.975-8.374" transform="translate(-712.25 -764.625)"/>
  <path id="形状_15_拷贝_2" data-name="形状 15 拷贝 2" class="cls-1" d="M732.577,809.65c-12.832-11.105-19.7-23.411-15.634-29.03,2.254-3.114,7.455-3.6,14.079-1.855a68.364,68.364,0,0,1,19.851,9.519" transform="translate(-712.25 -764.625)"/>
  <path id="形状_15_拷贝" data-name="形状 15 拷贝" class="cls-2" d="M716.935,809.487a4.7,4.7,0,1,1-4.7,4.7A4.7,4.7,0,0,1,716.935,809.487Zm52.827,13.081a4.559,4.559,0,1,1-4.7,4.557A4.628,4.628,0,0,1,769.762,822.568Zm-17.609-56.589a4.7,4.7,0,1,1-4.7,4.7A4.7,4.7,0,0,1,752.153,765.979Z" transform="translate(-712.25 -764.625)"/>
</svg>
