<svg xmlns="http://www.w3.org/2000/svg" width="1108" height="1108" viewBox="0 0 1108 1108">
  <metadata><?xpacket begin="﻿" id="W5M0MpCehiHzreSzNTczkc9d"?>
<x:xmpmeta xmlns:x="adobe:ns:meta/" x:xmptk="Adobe XMP Core 5.6-c138 79.159824, 2016/09/14-01:09:01        ">
   <rdf:RDF xmlns:rdf="http://www.w3.org/1999/02/22-rdf-syntax-ns#">
      <rdf:Description rdf:about=""/>
   </rdf:RDF>
</x:xmpmeta>
                                                                                                    
                                                                                                    
                                                                                                    
                                                                                                    
                                                                                                    
                                                                                                    
                                                                                                    
                                                                                                    
                                                                                                    
                                                                                                    
                                                                                                    
                                                                                                    
                                                                                                    
                                                                                                    
                                                                                                    
                                                                                                    
                                                                                                    
                                                                                                    
                                                                                                    
                                                                                                    
                           
<?xpacket end="w"?></metadata>
<defs>
    <style>
      .cls-1 {
        fill: #00afec;
        fill-rule: evenodd;
      }
    </style>
  </defs>
  <path id="矩形_17_拷贝" data-name="矩形 17 拷贝" class="cls-1" d="M0,0H1108V1108H0V0ZM0,1108V0H1108V1108H0ZM1090.86,419l-0.01.007c0.42-.41-88.93-137.989-223.507-233.98C729.554,86.747,554.107,21,554.107,21h-1.214S395.64,73.646,263,172C126.119,273.5,13.718,420.8,13.718,420.8l-0.706.233,0.074,0.234-0.073.054,0.161,0.226S9.31,606.774,58,762c53.939,171.961,160.968,315.64,160.968,315.64l0.032-.01V1078s176.445,29.26,348,29c162.711-.24,321-30,321-30v-0.03l0.125,0.04S974.891,961.488,1028,792c49.32-157.406,65.27-369.667,65.27-369.667l0.72-1.011-0.33-.242,0.33-1.046Z"/>
</svg>
