<svg xmlns="http://www.w3.org/2000/svg" width="1140" height="1140" viewBox="0 0 1140 1140">
  <metadata><?xpacket begin="﻿" id="W5M0MpCehiHzreSzNTczkc9d"?>
<x:xmpmeta xmlns:x="adobe:ns:meta/" x:xmptk="Adobe XMP Core 5.6-c138 79.159824, 2016/09/14-01:09:01        ">
   <rdf:RDF xmlns:rdf="http://www.w3.org/1999/02/22-rdf-syntax-ns#">
      <rdf:Description rdf:about=""/>
   </rdf:RDF>
</x:xmpmeta>
                                                                                                    
                                                                                                    
                                                                                                    
                                                                                                    
                                                                                                    
                                                                                                    
                                                                                                    
                                                                                                    
                                                                                                    
                                                                                                    
                                                                                                    
                                                                                                    
                                                                                                    
                                                                                                    
                                                                                                    
                                                                                                    
                                                                                                    
                                                                                                    
                                                                                                    
                                                                                                    
                           
<?xpacket end="w"?></metadata>
<defs>
    <style>
      .cls-1 {
        fill: #fff;
        fill-rule: evenodd;
      }
    </style>
  </defs>
  <path id="矩形_16" data-name="矩形 16" class="cls-1" d="M0,0H1140V1140H0V0ZM570.107,38l1.908,2.679L30.92,440l-1.908-2.679Zm-1.214,0-1.908,2.679L1108.08,440l1.91-2.679ZM904,1093v-3l-669,1v3Zm-669.032.64,3.134-1.03L32.146,436l-3.135,1.033Zm669.157-.63-3.134-1.03L1106.86,435l3.13,1.033ZM568,39h3V625h-3V39Zm541.2,396.65,1,2.831L570,626.768l-1-2.83ZM237.409,1094.1l-2.392-1.81L567.674,625.054l2.391,1.8ZM30.064,438.86l0.992-2.833L570.434,624.359l-0.991,2.832ZM901.623,1094l2.391-1.8L571.389,624.991l-2.392,1.8Zm-179.5-252.986-3.134-1.032L813.855,537l3.134,1.033ZM723,841v-3H415v3H723ZM569.893,353l-1.908,2.68L815.08,541l1.908-2.679Zm-0.786,0,1.908,2.68L322.92,542l-1.908-2.679ZM415.968,841.639l3.134-1.032L324.146,538l-3.135,1.033ZM569.419,220l1.316,1.85-373.41,275.67-1.317-1.85Zm-0.838,0-1.316,1.85,373.41,275.67,1.317-1.85ZM799.839,947.31v-2.071l-461.678.69V948Zm-461.7,1.441,2.163-.713L198.171,494.757l-2.163.712Zm461.786-.431-2.162-.713L939.83,494.066l2.162,0.713Z"/>
</svg>
