<svg xmlns="http://www.w3.org/2000/svg" width="1108" height="1108" viewBox="0 0 1108 1108">
  <metadata><?xpacket begin="﻿" id="W5M0MpCehiHzreSzNTczkc9d"?>
<x:xmpmeta xmlns:x="adobe:ns:meta/" x:xmptk="Adobe XMP Core 5.6-c138 79.159824, 2016/09/14-01:09:01        ">
   <rdf:RDF xmlns:rdf="http://www.w3.org/1999/02/22-rdf-syntax-ns#">
      <rdf:Description rdf:about=""/>
   </rdf:RDF>
</x:xmpmeta>
                                                                                                    
                                                                                                    
                                                                                                    
                                                                                                    
                                                                                                    
                                                                                                    
                                                                                                    
                                                                                                    
                                                                                                    
                                                                                                    
                                                                                                    
                                                                                                    
                                                                                                    
                                                                                                    
                                                                                                    
                                                                                                    
                                                                                                    
                                                                                                    
                                                                                                    
                                                                                                    
                           
<?xpacket end="w"?></metadata>
<defs>
    <style>
      .cls-1 {
        fill: #fff;
        fill-rule: evenodd;
      }
    </style>
  </defs>
  <path id="矩形_16" data-name="矩形 16" class="cls-1" d="M0,0H1108V1108H0V0ZM554.107,22l1.908,2.68L14.92,424l-1.908-2.679Zm-1.214,0-1.908,2.68L1092.08,424l1.91-2.679ZM888,1077v-3l-669,1v3Zm-669.032.64,3.134-1.03L16.146,420l-3.135,1.033Zm669.157-.63-3.134-1.03L1090.86,419l3.13,1.033ZM552,23h3V609h-3V23Zm541.2,396.65,1,2.831L554,610.768l-1-2.83ZM221.409,1078.1l-2.392-1.81L551.674,609.054l2.391,1.8ZM14.064,422.86l0.992-2.833L554.434,608.359l-0.991,2.832ZM885.623,1078l2.391-1.8L555.389,608.991l-2.392,1.8Zm-179.5-252.986-3.134-1.032L797.855,521l3.134,1.033ZM707,825v-3H399v3H707ZM553.893,337l-1.908,2.68L799.08,525l1.908-2.679Zm-0.786,0,1.908,2.68L306.92,526l-1.908-2.679ZM399.968,825.639l3.134-1.032L308.146,522l-3.135,1.033ZM553.419,204l1.316,1.85-373.41,275.67-1.317-1.85Zm-0.838,0-1.316,1.85,373.41,275.67,1.317-1.85ZM783.839,931.31v-2.071l-461.678.69V932Zm-461.7,1.441,2.163-.712L182.171,478.757l-2.163.712Zm461.786-.431-2.162-.713L923.83,478.066l2.162,0.713Z"/>
</svg>
