<svg id="_2渠道" data-name="2渠道" xmlns="http://www.w3.org/2000/svg" width="75.001" height="72.626" viewBox="0 0 75.001 72.626">
  <metadata><?xpacket begin="﻿" id="W5M0MpCehiHzreSzNTczkc9d"?>
<x:xmpmeta xmlns:x="adobe:ns:meta/" x:xmptk="Adobe XMP Core 5.6-c138 79.159824, 2016/09/14-01:09:01        ">
   <rdf:RDF xmlns:rdf="http://www.w3.org/1999/02/22-rdf-syntax-ns#">
      <rdf:Description rdf:about=""/>
   </rdf:RDF>
</x:xmpmeta>
                                                                                                    
                                                                                                    
                                                                                                    
                                                                                                    
                                                                                                    
                                                                                                    
                                                                                                    
                                                                                                    
                                                                                                    
                                                                                                    
                                                                                                    
                                                                                                    
                                                                                                    
                                                                                                    
                                                                                                    
                                                                                                    
                                                                                                    
                                                                                                    
                                                                                                    
                                                                                                    
                           
<?xpacket end="w"?></metadata>
<defs>
    <style>
      .cls-1, .cls-3 {
        fill: none;
        stroke: #fb9400;
        stroke-width: 3.001px;
      }

      .cls-1, .cls-2 {
        fill-rule: evenodd;
      }

      .cls-2 {
        fill: #fb9400;
      }
    </style>
  </defs>
  <path id="矩形_9" data-name="矩形 9" class="cls-1" d="M712.333,767.377h27.212a2,2,0,0,1,2,2v27.209a2,2,0,0,1-2,2H712.333a2,2,0,0,1-2-2V769.377A2,2,0,0,1,712.333,767.377Z" transform="translate(-707.249 -765.874)"/>
  <path id="矩形_9_拷贝" data-name="矩形 9 拷贝" class="cls-2" d="M776.826,771.8l-11.465,11.611,11.46,11.606a1.461,1.461,0,0,1,0,2.044,1.411,1.411,0,0,1-2.016,0l-11.462-11.607-11.461,11.607a1.411,1.411,0,0,1-2.016,0,1.459,1.459,0,0,1,0-2.044l11.46-11.606L749.86,771.8a1.462,1.462,0,0,1,0-2.045,1.413,1.413,0,0,1,2.016,0l11.467,11.613,11.468-11.613a1.411,1.411,0,0,1,2.015,0A1.46,1.46,0,0,1,776.826,771.8Z" transform="translate(-707.249 -765.874)"/>
  <circle id="椭圆_2" data-name="椭圆 2" class="cls-3" cx="18.72" cy="53.907" r="17.219"/>
  <path id="矩形_10" data-name="矩形 10" class="cls-1" d="M744.749,834.594l18.006-31.218,18.006,31.218H744.749Z" transform="translate(-707.249 -765.874)"/>
</svg>
