<svg id="_3信用" data-name="3信用" xmlns="http://www.w3.org/2000/svg" width="68.6" height="81.813" viewBox="0 0 68.6 81.813">
  <metadata><?xpacket begin="﻿" id="W5M0MpCehiHzreSzNTczkc9d"?>
<x:xmpmeta xmlns:x="adobe:ns:meta/" x:xmptk="Adobe XMP Core 5.6-c138 79.159824, 2016/09/14-01:09:01        ">
   <rdf:RDF xmlns:rdf="http://www.w3.org/1999/02/22-rdf-syntax-ns#">
      <rdf:Description rdf:about=""/>
   </rdf:RDF>
</x:xmpmeta>
                                                                                                    
                                                                                                    
                                                                                                    
                                                                                                    
                                                                                                    
                                                                                                    
                                                                                                    
                                                                                                    
                                                                                                    
                                                                                                    
                                                                                                    
                                                                                                    
                                                                                                    
                                                                                                    
                                                                                                    
                                                                                                    
                                                                                                    
                                                                                                    
                                                                                                    
                                                                                                    
                           
<?xpacket end="w"?></metadata>
<defs>
    <style>
      .cls-1, .cls-2 {
        fill: none;
        stroke: #fb9400;
        stroke-width: 3.001px;
        fill-rule: evenodd;
      }

      .cls-2 {
        stroke-linejoin: bevel;
      }

      .cls-3 {
        font-size: 76.91px;
        fill: #fb9400;
        text-anchor: middle;
        font-family: Hei;
      }
    </style>
  </defs>
  <path id="椭圆_9" data-name="椭圆 9" class="cls-1" d="M1077.86,762.172a27.21,27.21,0,1,1-27.21,27.209A27.208,27.208,0,0,1,1077.86,762.172Z" transform="translate(-1043.56 -760.687)"/>
  <path id="矩形_20" data-name="矩形 20" class="cls-2" d="M1097.87,818.982h12.8v22h-12.8a2,2,0,0,1-2-2v-18A2,2,0,0,1,1097.87,818.982Zm-19.99,1.489c3.43,0,9.99,2,9.99,2v15.32s-7.62,2-11.32,2c-1.79,0-16.64-2.665-16.64-2.665s-12.76-8.454-13.98-11.326c-0.51-1.187-1.68-3.514,0-4.663,3.47-2.38,4.42-1.27,7.99.666a49.725,49.725,0,0,0,22.63,6s-10.65-.148-10.65-2.665V823.8C1065.9,822.539,1075.49,820.471,1077.88,820.471Z" transform="translate(-1043.56 -760.687)"/>
  <path id="矩形_20_拷贝" data-name="矩形 20 拷贝" class="cls-2" d="M1087.87,821.779h8V838.6h-8V821.779Z" transform="translate(-1043.56 -760.687)"/>
  <text id="信" class="cls-3" transform="translate(33.712 38.482) scale(0.36 0.36)">信</text>
</svg>
