<svg id="tel_web" xmlns="http://www.w3.org/2000/svg" width="457" height="32" viewBox="0 0 457 32">
  <defs>
    <style>
      .cls-1 {
        fill: #fff;
      }

      .cls-1, .cls-2 {
        fill-rule: evenodd;
      }

      .cls-2 {
        fill: #cdd4e7;
      }
    </style>
  </defs>
  <path id="_020_8411-5237" data-name="(020) 8411-5237" class="cls-1" d="M282.882,26.036V24.817a18.065,18.065,0,0,1,5.925-6.75q4.231-3.094,4.138-5.625-0.1-3.375-3.856-3.469-2.916.189-3.95,3.656l-1.88-.937q1.6-4.592,6.206-4.5,5.265,0.189,5.642,4.969,0.282,3.656-4.7,7.031a16.208,16.208,0,0,0-5.078,5.25H295.2v1.594H282.882Zm52.661-4.5q-0.377,3.188-4.232,3.469-3.856-.281-4.232-3.656,0.375-3.937,4.138-4.125,4.043,0.189,4.326,4.313h0ZM334.6,12.255q-0.189,3.375-3.291,3.469-3.292-.187-3.385-3.656a3.213,3.213,0,0,1,3.385-3.187,3.326,3.326,0,0,1,3.291,3.375h0Zm-9.686,9.094q0.188,4.97,6.395,5.156,6.113-.189,6.4-4.969a5.288,5.288,0,0,0-3.668-5.062,4.637,4.637,0,0,0,2.821-4.219q-0.471-4.687-5.548-5.062-5.268.281-5.642,5.062a4.754,4.754,0,0,0,3.009,4.219,5.219,5.219,0,0,0-3.762,4.875h0ZM376.608,11.13a15.809,15.809,0,0,1-4.984,3V12.161q4.323-1.969,5.548-4.969h1.41V26.223h-1.974V11.13Zm38.525,14.906V24.817a18.056,18.056,0,0,1,5.925-6.75q4.232-3.094,4.137-5.625Q425.1,9.067,421.34,8.973q-2.916.189-3.95,3.656l-1.881-.937q1.6-4.592,6.207-4.5,5.265,0.189,5.642,4.969,0.282,3.656-4.7,7.031a16.208,16.208,0,0,0-5.078,5.25h9.874v1.594H415.133Z"/>
  <path id="_020_8411-5237_拷贝_5" data-name="(020) 8411-5237 拷贝 5" class="cls-1" d="M442.269,21.067q-0.282,5.157-6.207,5.438-5.267,0-6.394-4.969l2.163-.562q0.564,3.845,4.043,3.844,4.233,0,4.232-3.937-0.282-3.375-4.326-3.562h-1.692V15.63h0.94q4.043-.092,4.232-3.562a2.952,2.952,0,0,0-3.2-3.094q-3.2.094-3.855,3.563l-2.069-.656a5.588,5.588,0,0,1,5.83-4.687q5.361,0.189,5.549,4.875a4.353,4.353,0,0,1-3.2,4.219,4.949,4.949,0,0,1,3.95,4.781h0Zm7.388,5.156H447.4a41.754,41.754,0,0,1,7.053-16.781h-9.686V7.567h12.225V8.88a38.344,38.344,0,0,0-7.335,17.344h0Z"/>
  <path id="_020_8411-5237_拷贝_4" data-name="(020) 8411-5237 拷贝 4" class="cls-1" d="M385.03,17.88V16H398.1V17.88H385.03Zm22.245-4.125q5.454,0.281,5.831,6.188-0.191,6.377-6.113,6.563-5.359,0-6.394-5.062l2.068-.562q0.565,3.938,4.138,4.031,4.042-.187,4.232-4.781-0.189-4.311-4.138-4.5a4.674,4.674,0,0,0-4.137,2.063l-1.411-.281,1.128-9.844h9.686V9.442h-8.087l-0.564,5.719a5.743,5.743,0,0,1,3.761-1.406h0Z"/>
  <path id="_020_8411-5237_拷贝_3" data-name="(020) 8411-5237 拷贝 3" class="cls-1" d="M347.538,11.13a3.749,3.749,0,0,0,.188-0.469,0.975,0.975,0,0,0,.189-0.375v9.656h-6.4q4.514-6.842,6.018-8.812h0Zm4.89,8.813H349.8V7.192h-1.5L339.263,20.5V21.63h8.652v4.594h1.88V21.63h2.633V19.942ZM361.7,11.13a15.809,15.809,0,0,1-4.984,3V12.161q4.325-1.969,5.548-4.969h1.411V26.223H361.7V11.13Z"/>
  <path id="_020_8411-5237_拷贝_2" data-name="(020) 8411-5237 拷贝 2" class="cls-1" d="M307.949,16.942q0,8.064-4.043,7.969-4.046.095-4.044-7.969,0.093-7.78,3.95-8.062,4.137-.092,4.137,8.062h0Zm2.163,0q-0.095-9.562-6.206-9.75-6.114.281-6.207,9.75,0,9.47,6.3,9.563,6.017-.189,6.112-9.562h0Zm5.426-.355a16.522,16.522,0,0,0-3.319-9.78h1.328a16.262,16.262,0,0,1,3.54,9.78,15.4,15.4,0,0,1-3.54,9.486h-1.328a14.9,14.9,0,0,0,3.319-9.486h0Z"/>
  <path id="_020_8411-5237_拷贝" data-name="(020) 8411-5237 拷贝" class="cls-1" d="M261.478,16.661a16.251,16.251,0,0,1,3.541-9.78h1.327a16.212,16.212,0,0,0-3.319,9.707,14.994,14.994,0,0,0,3.319,9.56h-1.327a15.381,15.381,0,0,1-3.541-9.486h0ZM278.5,16.942q0,8.064-4.044,7.969-4.044.095-4.043-7.969,0.092-7.78,3.949-8.062,4.137-.092,4.138,8.062h0Zm2.163,0q-0.094-9.562-6.207-9.75-6.114.281-6.206,9.75,0,9.47,6.3,9.563,6.018-.189,6.113-9.562h0Z"/>
  <path id="_400-833-0906" data-name="400-833-0906" class="cls-1" d="M182.3,17.458q-3.667-.281-3.855-4.594,0.282-4.311,3.855-4.594,4.513-.092,4.514,5.813a4.164,4.164,0,0,1-4.514,3.375h0ZM182.116,25.8q6.864-.094,6.865-10.031,0.093-9.374-6.489-9.281-5.737.47-6.112,6.562,0.47,5.719,5.736,6.188a4.884,4.884,0,0,0,4.7-2.719q-0.095,7.594-4.514,7.781-2.821.094-3.479-3.187l-1.975.656a5.237,5.237,0,0,0,5.266,4.031h0Zm19.519-9.562q0,8.064-4.044,7.969-4.044.094-4.044-7.969,0.093-7.78,3.95-8.062,4.137-.092,4.138,8.062h0Zm2.163,0q-0.1-9.562-6.207-9.75-6.114.281-6.206,9.75,0,9.47,6.3,9.563,6.017-.189,6.113-9.562h0Zm8.986-1.219q3.668,0.095,3.761,4.594-0.189,4.5-3.761,4.688-4.422-.187-4.514-5.906,0.846-3.186,4.514-3.375h0Zm0.188-8.531q-6.771,0-6.865,10.219,0,9.094,6.677,9.094,5.547-.47,5.924-6.375-0.376-5.812-5.642-6.094a5.441,5.441,0,0,0-4.89,2.625q0-7.686,4.7-7.781,2.822-.092,3.573,3.187l1.881-.656a5.428,5.428,0,0,0-5.36-4.219h0Z"/>
  <path id="_400-833-0906_拷贝_8" data-name="400-833-0906 拷贝 8" class="cls-1" d="M145.9,17.177V15.3h13.071v1.875H145.9Zm25.913-.937q0,8.064-4.043,7.969-4.046.094-4.044-7.969,0.093-7.78,3.95-8.062,4.136-.092,4.137,8.062h0Zm2.163,0q-0.094-9.562-6.206-9.75-6.114.281-6.207,9.75,0,9.47,6.3,9.563,6.016-.189,6.112-9.562h0Z"/>
  <path id="_400-833-0906_拷贝_7" data-name="400-833-0906 拷贝 7" class="cls-1" d="M143.214,20.364q-0.282,5.157-6.206,5.438-5.268,0-6.4-4.969l2.163-.562q0.564,3.845,4.044,3.844,4.231,0,4.231-3.937-0.282-3.375-4.325-3.562h-1.693V14.927h0.94q4.042-.092,4.232-3.562a2.951,2.951,0,0,0-3.2-3.094q-3.2.094-3.856,3.563l-2.069-.656a5.59,5.59,0,0,1,5.831-4.687q5.36,0.189,5.548,4.875a4.353,4.353,0,0,1-3.2,4.219,4.949,4.949,0,0,1,3.949,4.781h0Z"/>
  <path id="_400-833-0906_拷贝_6" data-name="400-833-0906 拷贝 6" class="cls-1" d="M128.492,20.364q-0.283,5.157-6.207,5.438-5.268,0-6.395-4.969l2.163-.562q0.564,3.845,4.044,3.844,4.232,0,4.232-3.937Q126.047,16.8,122,16.614H120.31V14.927h0.941q4.041-.092,4.231-3.562a2.95,2.95,0,0,0-3.2-3.094q-3.2.094-3.856,3.563l-2.068-.656a5.588,5.588,0,0,1,5.83-4.687q5.359,0.189,5.548,4.875a4.352,4.352,0,0,1-3.2,4.219,4.95,4.95,0,0,1,3.95,4.781h0Z"/>
  <path id="_400-833-0906_拷贝_5" data-name="400-833-0906 拷贝 5" class="cls-1" d="M111.7,20.833q-0.377,3.188-4.232,3.469-3.856-.281-4.231-3.656,0.374-3.937,4.137-4.125,4.043,0.189,4.326,4.313h0Zm-0.94-9.281q-0.191,3.375-3.292,3.469-3.293-.187-3.385-3.656a3.213,3.213,0,0,1,3.385-3.187,3.327,3.327,0,0,1,3.292,3.375h0Zm-9.686,9.094q0.188,4.97,6.394,5.156,6.112-.189,6.395-4.969a5.287,5.287,0,0,0-3.668-5.063,4.64,4.64,0,0,0,2.822-4.219q-0.472-4.687-5.549-5.062-5.267.281-5.642,5.062a4.754,4.754,0,0,0,3.009,4.219,5.217,5.217,0,0,0-3.761,4.875h0Z"/>
  <path id="_400-833-0906_拷贝_4" data-name="400-833-0906 拷贝 4" class="cls-1" d="M85.5,17.177V15.3H98.576v1.875H85.5Z"/>
  <path id="_400-833-0906_拷贝_3" data-name="400-833-0906 拷贝 3" class="cls-1" d="M80.562,16.239q0,8.064-4.044,7.969-4.044.094-4.044-7.969,0.093-7.78,3.95-8.062,4.137-.092,4.138,8.062h0Zm2.163,0q-0.095-9.562-6.207-9.75-6.114.281-6.206,9.75,0,9.47,6.3,9.563,6.017-.189,6.113-9.562h0Z"/>
  <path id="_400-833-0906_拷贝_2" data-name="400-833-0906 拷贝 2" class="cls-1" d="M65.651,16.239q0,8.064-4.044,7.969-4.044.094-4.044-7.969,0.093-7.78,3.95-8.062,4.137-.092,4.138,8.062h0Zm2.163,0q-0.095-9.562-6.206-9.75-6.114.281-6.207,9.75,0,9.47,6.3,9.563,6.017-.189,6.112-9.562h0Z"/>
  <path id="_400-833-0906_拷贝" data-name="400-833-0906 拷贝" class="cls-1" d="M48.013,10.427A3.826,3.826,0,0,0,48.2,9.958a0.969,0.969,0,0,0,.188-0.375v9.656H41.995q4.514-6.842,6.018-8.812h0Zm4.89,8.813H50.27V6.489h-1.5L39.738,19.8v1.125H48.39v4.594H50.27V20.927H52.9V19.239Z"/>
  <path id="椭圆_1_拷贝_2" data-name="椭圆 1 拷贝 2" class="cls-2" d="M16.187,20.933l0.975-.976c1.463-1.464,2.6-.976,3.251-0.325l2.925,2.928c0.65,0.651,1.138,1.79-.325,3.254h0a7.373,7.373,0,0,1-9.266.94,44.372,44.372,0,0,1-6.988-5.82,43.308,43.308,0,0,1-5.535-6.612,7.376,7.376,0,0,1,.934-9.282l0.05-.049c0.761-.763,1.95-1.627,3.25-0.325L8.385,7.592c1.3,1.3.436,2.491-.325,3.254l-0.975.976s-0.887,1.39,3.251,5.531S16.187,20.933,16.187,20.933Z"/>
  <path id="形状_20" data-name="形状 20" class="cls-2" d="M238.99,0h1V32h-1V0Z"/>
</svg>
